<?xml version="1.0" encoding="utf-8"?>
<!-- Generator: Adobe Illustrator 24.1.2, SVG Export Plug-In . SVG Version: 6.00 Build 0)  -->
<svg version="1.1" xmlns="http://www.w3.org/2000/svg" xmlns:xlink="http://www.w3.org/1999/xlink" x="0px" y="0px"
	 viewBox="0 0 545 662.7" style="enable-background:new 0 0 545 662.7;" xml:space="preserve">
<style type="text/css">
	.st0{fill:none;stroke:#000000;stroke-width:0.375;}
	.st1{fill:#D7464F;}
	.st2{fill:url(#SVGID_1_);}
	.st3{fill:#A6283D;}
	.st4{fill:#DBAFB3;}
	.st5{fill:#FFFFFF;}
	.st6{fill:#56AF31;}
	.st7{fill:none;stroke:#FFFFFF;stroke-width:6;stroke-linecap:round;stroke-miterlimit:10;}
	.st8{fill:#E00914;}
	.st9{fill:none;stroke:#FFFFFF;stroke-width:3;stroke-linecap:round;stroke-linejoin:round;stroke-miterlimit:10;}
	.st10{fill:none;stroke:#FFFFFF;stroke-width:4;stroke-linecap:round;stroke-linejoin:round;stroke-miterlimit:10;}
	.st11{opacity:0.26;fill:none;stroke:#D7464F;stroke-width:2;stroke-linecap:round;stroke-miterlimit:10;}
	.st12{fill:none;stroke:#D7464F;stroke-width:4;stroke-linecap:round;stroke-miterlimit:10;}
	.st13{clip-path:url(#SVGID_3_);}
	.st14{fill:url(#SVGID_4_);}
	.st15{fill:url(#SVGID_5_);}
	.st16{fill:url(#SVGID_6_);}
	.st17{fill:url(#SVGID_7_);}
	.st18{clip-path:url(#SVGID_9_);}
	.st19{fill:url(#SVGID_10_);}
	.st20{fill:url(#SVGID_11_);}
	.st21{fill:url(#SVGID_12_);}
	.st22{fill:url(#SVGID_13_);}
	.st23{fill:url(#SVGID_14_);}
	.st24{display:none;opacity:0.71;fill:#FFFFFF;}
	.st25{fill:#1E1E1C;}
	.st26{fill:#020203;}
	.st27{clip-path:url(#SVGID_16_);fill:none;stroke:#FFFFFF;stroke-width:1.256;}
	.st28{clip-path:url(#SVGID_16_);fill:#FFFFFF;}
	.st29{clip-path:url(#SVGID_18_);fill:none;stroke:#FFFFFF;stroke-width:1.256;}
	.st30{clip-path:url(#SVGID_18_);fill:#FFFFFF;}
	.st31{clip-path:url(#SVGID_20_);}
	.st32{display:none;}
	.st33{display:inline;fill:#D7464F;}
	.st34{display:inline;fill:#FFFFFF;}
	.st35{display:inline;}
	.st36{fill:none;stroke:#FFFFFF;stroke-width:31;stroke-miterlimit:10;}
	.st37{fill:none;}
	.st38{display:none;fill:#D7464F;}
	.st39{font-family:'AlwaysForever-Bold';}
	.st40{font-size:375.3018px;}
	.st41{fill:#FFFFFF;stroke:#000000;stroke-miterlimit:10;}
	.st42{fill:#C7233B;}
	.st43{font-family:'Amaranth-BoldItalic';}
	.st44{font-size:120.0136px;}
	.st45{font-size:66.0702px;}
</style>
<g id="Warstwa_1">
</g>
<g id="Warstwa_5">
</g>
<g id="Warstwa_2">
</g>
<g id="Warstwa_3">
	<g id="draft" class="st32">
		<path class="st33" d="M124.8,511.7c0,0,52.1,43,110.5,21.8l234.4-67.9c0.1,0,0.3-0.1,0.4-0.1c8-3.9,21.7-10,27.1-15.1
			c41.3-38.9,39.6-61.5,39.6-106.8l0-189.9c0-26-15.2-46-49.6-75.3c-0.7-0.6-1.7-0.8-2.5-0.4l-0.5,0.2l0,0c0.3-1-0.1-2.1-1-2.7
			l-51.8-36.3l0,0C375-5.8,332,13.4,305.8,21.4L102.9,83c-71.6,24.1-86.9,35.7-86.9,103.4v196.9c0,0.1,0,0.2,0,0.3
			c3,21.3-16,38.6,62.3,93.6c0,0,0,0,0,0L124.8,511.7z"/>
		<path class="st34" d="M459,459.6l-238.9,69.8c-20.6,6.2-77.9-4.6-77.9-57.4l0-209.7c0-42.3,27.5-71.2,70.6-83.2l237.7-70.4
			c26.3-8,77.8-1.1,77.8,55.4l0,201C528.3,391.6,515.1,443.4,459,459.6z"/>
		<path class="st33" d="M405.8,406.7l-122.2,36.6c-26.1,7.8-47.3-7.1-47.3-33.3l0-101.9c0-26.2,21.2-53.9,47.3-61.8l122.2-36.9
			c26.2-7.9,47.5,7,47.5,33.2l0,102.2C453.3,371.2,432,398.9,405.8,406.7z"/>
		<g class="st35">
			<path class="st36" d="M356.8,222.3c0,0,19.5,58.7-9.3,101.1c-0.9,1.3-1.8,2.5-2.7,3.8c-17.4,22.8-53.3,40.6-111.9,41.5"/>
			<path class="st36" d="M344.8,327.6c0,0-42.1,72,40.9,103"/>
			<path class="st36" d="M347.8,324.4c1.1-6.7,67.1-78.9,122.1-13.9"/>
		</g>
		<g class="st35">
			<path class="st5" d="M3.6,200.4c1.6-0.8,3-1.5,4.5-2.3c1.5-0.7,2.9-1.4,4.4-2.1c2.9-1.4,5.9-2.7,8.8-3.9c5.9-2.5,11.9-4.9,17.9-7
				c12.1-4.3,24.4-8,36.8-10.9c12.5-2.9,25.1-4.9,37.8-5.8c6.3-0.5,12.7-0.5,19.1-0.4c6.3,0.2,12.7,0.8,18.9,1.7
				c-6.3-0.3-12.6-0.3-18.9,0.1c-6.3,0.5-12.5,1.1-18.6,2.2c-12.3,2.1-24.4,5.3-36.2,9.3c-11.8,4-23.3,8.7-34.5,14.1
				c-5.6,2.7-11.1,5.5-16.5,8.5c-2.7,1.5-5.4,3-8,4.6c-1.3,0.8-2.6,1.6-3.9,2.4c-1.3,0.8-2.6,1.6-3.8,2.4L3.6,200.4z"/>
		</g>
		<g class="st35">
			<path class="st5" d="M47.2,78.9c15.5,2.4,30.8,5.2,46.1,8.3c15.3,3.1,30.5,6.5,45.6,10.4c15.1,3.9,30.1,8.2,44.7,13.6
				c7.3,2.7,14.5,5.7,21.5,9.3c3.5,1.8,6.8,3.8,10,6c3.2,2.2,6.2,4.8,8.6,7.8c-2.7-2.8-5.8-5.1-9.1-7c-3.3-1.9-6.8-3.6-10.3-5.1
				c-7.1-3-14.4-5.4-21.8-7.4c-14.8-4.2-29.9-7.2-45.1-9.9c-15.2-2.6-30.5-4.8-45.8-6.6c-15.3-1.8-30.7-3.4-45.9-4.5L47.2,78.9z"/>
		</g>
		<g class="st35">
			<path class="st5" d="M138,30c16.2,3.8,32.1,8,48,12.5c15.9,4.5,31.7,9.3,47.3,14.6c15.6,5.3,31.1,11,46.2,17.9
				c7.5,3.4,14.9,7.1,22,11.5c3.5,2.2,6.9,4.5,10.1,7.2c1.6,1.3,3.1,2.7,4.5,4.2c1.4,1.5,2.7,3.1,3.8,4.9c-1.2-1.7-2.6-3.2-4.1-4.6
				c-1.5-1.4-3.1-2.6-4.8-3.8c-3.3-2.4-6.9-4.4-10.5-6.3c-7.3-3.7-14.8-6.8-22.5-9.6c-15.3-5.6-31.1-10.1-46.9-14.1
				c-15.8-4-31.8-7.6-47.8-10.8c-16-3.2-32.2-6.2-48.2-8.7L138,30z"/>
		</g>
		<g class="st35">
			<path class="st5" d="M234.9-12.6c15.8,5.3,31.2,10.9,46.6,16.8c15.4,5.9,30.7,12.1,45.8,18.8c15.1,6.7,30,13.8,44.3,22
				c7.2,4.1,14.2,8.5,20.8,13.5c3.3,2.5,6.5,5.2,9.4,8.1c1.5,1.5,2.8,3,4.1,4.7c1.2,1.7,2.3,3.4,3.2,5.3c-1-1.8-2.2-3.4-3.6-5
				c-1.4-1.5-2.8-3-4.4-4.3c-3.1-2.7-6.4-5.1-9.8-7.3c-6.8-4.4-14.1-8.2-21.4-11.7c-14.7-7-30-12.9-45.3-18.4
				c-15.4-5.5-31-10.4-46.6-15.1c-15.6-4.6-31.4-9-47.1-13L234.9-12.6z"/>
		</g>
		<g class="st35">
			<path class="st5" d="M0.6,304.8c-0.2-0.5-0.4-1-0.5-1.5c-0.1-0.3-0.1-0.5-0.1-0.8c0-0.3,0-0.5,0-0.7c0-0.4,0-0.8,0.1-1.2
				c0-0.4,0.1-0.9,0.2-1c0.1-0.5,0.3-1,0.5-1.4c0.1-0.3,0.3-0.6,0.5-0.8c0.2-0.3,0.3-0.4,0.4-0.6c0.1-0.2,0.3-0.3,0.4-0.5
				c0.2-0.2,0.4-0.4,0.6-0.6c0.7-0.6,1.1-0.9,1.5-1.2c0.8-0.6,1.5-0.9,2.1-1.3c1.3-0.7,2.4-1.2,3.6-1.7c2.3-1,4.5-1.9,6.7-2.7
				c4.4-1.7,8.9-3.2,13.3-4.7c8.9-3,17.8-5.7,26.7-8.3c8.9-2.6,17.9-5,27-7.1c4.5-1,9.1-2,13.7-2.8c2.3-0.4,4.6-0.7,6.9-1
				c2.3-0.2,4.6-0.4,7-0.2c-2.3,0.1-4.6,0.6-6.8,1.2c-2.2,0.6-4.4,1.2-6.6,1.9c-4.4,1.4-8.7,2.9-13,4.6c-8.6,3.3-17.1,6.8-25.5,10.5
				c-8.4,3.7-16.8,7.6-25,11.6c-4.1,2-8.2,4.1-12.1,6.2c-2,1.1-3.9,2.2-5.7,3.3c-0.9,0.6-1.8,1.1-2.5,1.6c-0.4,0.3-0.7,0.5-0.8,0.7
				c0,0.1-0.1,0.1,0.2-0.1c0.1,0,0.2-0.2,0.3-0.3c0.1-0.1,0.2-0.2,0.2-0.3c0.1-0.1,0.1-0.2,0.3-0.4c0.1-0.2,0.3-0.4,0.4-0.6
				c0.2-0.4,0.3-0.8,0.4-1.2c0-0.1,0.1-0.6,0.2-0.9c0-0.4,0.1-0.7,0.1-1.1c0-0.2,0-0.4,0-0.6c0-0.2-0.1-0.5-0.1-0.7
				c-0.1-0.5-0.3-0.9-0.4-1.4L0.6,304.8z"/>
		</g>
		<g class="st35">
			<path class="st5" d="M-7.4,407.2c1.3-1.5,2.6-2.6,3.7-3.6c1.2-1,2.3-1.8,3.5-2.7c2.3-1.6,4.6-3.2,6.9-4.6
				c4.6-2.9,9.2-5.6,13.9-8.2c9.4-5.2,18.9-10,28.5-14.5c9.7-4.5,19.5-8.6,29.4-12.3c10-3.6,20.1-6.9,30.6-8.7
				c-10.1,3-19.8,7.3-29.2,11.9c-9.4,4.7-18.6,9.8-27.5,15.2c-9,5.4-17.7,11.2-26.2,17.2c-4.2,3-8.4,6.1-12.4,9.3
				c-2,1.6-3.9,3.2-5.8,4.9c-0.9,0.8-1.8,1.7-2.6,2.5c-0.8,0.8-1.4,1.6-1.8,2.1L-7.4,407.2z"/>
		</g>
		<g class="st35">
			<path class="st5" d="M1,517.9c0.5-0.7,1-1.5,1.5-2.2l1.5-1.8c1-1.1,2-2.2,3-3.3c2-2.1,4-4,6.1-6c4.1-3.8,8.2-7.4,12.4-11
				c8.4-7.1,17-13.9,25.8-20.4c8.8-6.5,17.7-12.8,26.9-18.7c4.6-2.9,9.3-5.8,14.1-8.4c4.8-2.6,9.8-5,15-6.5c-5,2.1-9.6,5-14,8.1
				c-4.4,3.1-8.7,6.4-12.9,9.8c-8.4,6.8-16.4,14-24.3,21.4c-7.9,7.4-15.5,15-22.9,22.8c-3.7,3.9-7.3,7.9-10.7,11.9
				c-1.7,2-3.4,4-4.9,6.1c-0.8,1-1.5,2-2.2,3l-0.9,1.4c-0.3,0.5-0.4,0.8-0.7,1.2L1,517.9z"/>
		</g>
	</g>
	<path id="final" class="st38" d="M236.2,353.1v-45c0-26.2,21.2-53.9,47.3-61.8l58.9-17.8c2.4,8.5,14,54-7.8,86.2
		c-0.7,1-1.4,2.1-2.2,3.1C322.9,330.4,297.6,351.4,236.2,353.1z M378.3,278.4c5.7-2.9,11.9-5.4,18.5-7.3c15.3-4.2,35.6-5.5,56.5,5.6
		v-34.1c0-26.3-21.3-41.2-47.5-33.2l-33.6,10.1C374.3,226.9,380.5,250.9,378.3,278.4z M322.9,393.4c-3.3-9.1-4.4-18.2-4.2-26.8
		c-22.2,10.6-50.1,16.6-82.4,17.4v25.9c0,26.2,21.2,41.1,47.3,33.3l61.3-18.4C334.5,416.1,327.2,405.6,322.9,393.4z M414.9,299.3
		c-26.4,2.1-50,26.4-53.1,31.5c0,0,0.6-0.9,1-2.5c-0.8,1.3-1.6,2.6-2.5,3.9c-0.7,1-1.5,2.1-2.2,3.1l0.1,0
		c-0.1,0.3-14.2,25.3-6.1,47.9c4.5,12.4,15.3,22.5,32,30l21.6-6.5c26.2-7.9,47.5-35.5,47.5-61.8v-29.6
		C441.5,303.4,428.9,298.2,414.9,299.3z M497.2,450.3c-5.4,5.1-19.1,11.2-27.1,15.1c-0.1,0.1-0.3,0.1-0.4,0.1l-234.4,67.9
		c-58.4,21.1-110.5-21.8-110.5-21.8l-46.4-34.5c0,0,0,0,0,0c-4.1-2.8-7.8-5.6-11.4-8.2c4.4-3.9,8.8-7.7,13.4-11.4
		c4.2-3.4,8.5-6.7,12.9-9.8c4.4-3.1,9-6,14-8.1c-5.2,1.5-10.2,3.9-15,6.5c-4.8,2.6-9.5,5.4-14.1,8.4c-5.4,3.5-10.7,7.1-16,10.8
		c-38.6-29.7-45.3-47-46-60.9c3.3-2.5,6.6-5,10-7.4c8.5-6,17.3-11.7,26.2-17.2c9-5.4,18.1-10.6,27.5-15.2c9.4-4.6,19-8.9,29.2-11.9
		c-10.4,1.9-20.6,5.1-30.6,8.7c-10,3.6-19.8,7.8-29.4,12.3c-9.7,4.5-19.2,9.3-28.5,14.5c-1.4,0.8-2.8,1.5-4.1,2.3
		c0-2.3,0-4.5-0.4-6.8c0-0.1,0-0.2,0-0.3v-79.2c0,0,0.1,0,0.1-0.1c1.8-1.1,3.8-2.2,5.7-3.3c4-2.1,8-4.2,12.1-6.2
		c8.2-4,16.6-7.9,25-11.6c8.4-3.7,16.9-7.3,25.5-10.5c4.3-1.6,8.6-3.2,13-4.6c2.2-0.7,4.4-1.3,6.6-1.9c2.2-0.5,4.5-1,6.8-1.2
		c-2.3-0.2-4.6,0-7,0.2c-2.3,0.2-4.6,0.6-6.9,1c-4.6,0.8-9.1,1.8-13.7,2.8c-9.1,2.1-18,4.5-27,7.1c-8.9,2.6-17.8,5.3-26.7,8.3
		c-4.4,1.5-8.9,3-13.3,4.7c-0.1,0-0.3,0.1-0.4,0.1v-78.7c1-0.6,1.9-1.2,2.9-1.8c2.6-1.6,5.3-3.1,8-4.6c5.4-3,10.9-5.8,16.5-8.5
		c11.2-5.3,22.7-10.1,34.5-14.1c11.8-4,23.9-7.2,36.2-9.3c6.2-1.1,12.4-1.7,18.6-2.2c6.3-0.4,12.6-0.4,18.9-0.1
		c-6.2-0.9-12.6-1.5-18.9-1.7c-6.3-0.2-12.7-0.1-19.1,0.4c-12.7,0.9-25.4,2.9-37.8,5.8c-12.5,2.9-24.8,6.5-36.8,10.9
		c-6,2.2-12,4.5-17.9,7c-1.8,0.7-3.5,1.5-5.3,2.3v-8c0-55,10-73,52.2-90.7c7.8,0.8,15.5,1.6,23.3,2.5c15.3,1.8,30.6,4,45.8,6.6
		c15.2,2.6,30.3,5.7,45.1,9.9c7.4,2.1,14.7,4.5,21.8,7.4c3.5,1.5,7,3.2,10.3,5.1c3.3,1.9,6.5,4.2,9.1,7c-2.4-3-5.4-5.6-8.6-7.8
		c-3.2-2.2-6.6-4.2-10-6c-6.9-3.6-14.2-6.6-21.5-9.3c-14.6-5.4-29.6-9.7-44.7-13.6c-15.1-3.9-30.3-7.3-45.6-10.4
		c-0.5-0.1-1-0.2-1.6-0.3c3.6-1.2,7.3-2.5,11.2-3.8l90.4-27.5c12.7,2.7,25.3,5.6,37.8,8.8c15.8,4.1,31.6,8.5,46.9,14.1
		c7.7,2.8,15.2,5.9,22.5,9.6c3.6,1.9,7.2,3.9,10.5,6.3c1.7,1.2,3.3,2.5,4.8,3.8c1.5,1.4,2.9,2.9,4.1,4.6c-1.1-1.8-2.4-3.4-3.8-4.9
		c-1.4-1.5-2.9-2.9-4.5-4.2c-3.2-2.6-6.6-5-10.1-7.2c-7.1-4.3-14.5-8-22-11.5c-15.1-6.8-30.6-12.6-46.2-17.9
		c-7.3-2.5-14.6-4.8-21.9-7.1l91-27.7c7.4,2.4,14.8,4.9,22.1,7.5c15.4,5.5,30.6,11.4,45.3,18.4c7.3,3.5,14.6,7.3,21.4,11.7
		c3.4,2.2,6.7,4.6,9.8,7.3c1.6,1.3,3,2.8,4.4,4.3c1.3,1.5,2.6,3.2,3.6,5c-0.9-1.9-2-3.6-3.2-5.3c-1.3-1.6-2.6-3.2-4.1-4.7
		c-2.9-2.9-6.1-5.6-9.4-8.1c-6.6-5-13.6-9.4-20.8-13.5c-14.3-8.2-29.2-15.3-44.3-22c-3.7-1.6-7.4-3.2-11.1-4.8
		c26.6-8.4,65.7-18.4,115.2,21l51.8,36.3c0.9,0.6,1.3,1.7,1,2.7l0.5-0.2c0.9-0.3,1.8-0.1,2.5,0.4c34.5,29.2,49.6,49.2,49.6,75.3
		l0,189.9C536.8,388.8,538.5,411.4,497.2,450.3z M528.3,164.3c0-56.5-51.5-63.4-77.8-55.4l-237.7,70.4c-43.1,12-70.6,40.9-70.6,83.2
		v209.7c0,52.8,57.4,63.6,77.9,57.4L459,459.6c56.1-16.3,69.3-68.1,69.3-94.4V164.3z"/>
	<g class="st32">
		<text transform="matrix(1 0 0 1 -104.4964 753.0129)" class="st33 st39 st40">SushiQuest</text>
	</g>
	<g>
		<path id="final_3_" class="st42" d="M236,353.1v-45c0-26.2,21.2-53.9,47.3-61.8l58.9-17.8c2.4,8.5,14,54-7.8,86.2
			c-0.7,1-1.4,2.1-2.2,3.1C322.6,330.4,297.4,351.4,236,353.1z M378,278.4c5.7-2.9,11.9-5.4,18.5-7.3c15.3-4.2,35.6-5.5,56.5,5.6
			v-34.1c0-26.3-21.3-41.2-47.5-33.2L372,219.6C374.1,226.9,380.3,250.9,378,278.4z M322.6,393.4c-3.3-9.1-4.4-18.2-4.2-26.8
			c-22.2,10.6-50.1,16.6-82.4,17.4v25.9c0,26.2,21.2,41.1,47.3,33.3l61.3-18.4C334.3,416.1,327,405.6,322.6,393.4z M414.7,299.3
			c-26.4,2.1-50,26.4-53.1,31.5c0,0,0.6-0.9,1-2.5c-0.8,1.3-1.6,2.6-2.5,3.9c-0.7,1-1.5,2.1-2.2,3.1l0.1,0
			c-0.1,0.3-14.2,25.3-6.1,47.9c4.5,12.4,15.3,22.5,32,30l21.6-6.5c26.2-7.9,47.5-35.5,47.5-61.8v-29.6
			C441.3,303.4,428.7,298.2,414.7,299.3z M497,450.3c-5.4,5.1-19.1,11.2-27.1,15.1c-0.1,0.1-0.3,0.1-0.4,0.1l-234.4,67.9
			c-58.4,21.1-110.5-21.8-110.5-21.8l-46.4-34.5c0,0,0,0,0,0c-4.1-2.8-7.8-5.6-11.4-8.2c4.4-3.9,8.8-7.7,13.4-11.4
			c4.2-3.4,8.5-6.7,12.9-9.8c4.4-3.1,9-6,14-8.1c-5.2,1.5-10.2,3.9-15,6.5c-4.8,2.6-9.5,5.4-14.1,8.4c-5.4,3.5-10.7,7.1-16,10.8
			c-38.6-29.7-45.3-47-46-60.9c3.3-2.5,6.6-5,10-7.4c8.5-6,17.3-11.7,26.2-17.2c9-5.4,18.1-10.6,27.5-15.2c9.4-4.6,19-8.9,29.2-11.9
			c-10.4,1.9-20.6,5.1-30.6,8.7c-10,3.6-19.8,7.8-29.4,12.3c-9.7,4.5-19.2,9.3-28.5,14.5c-1.4,0.8-2.8,1.5-4.1,2.3
			c0-2.3,0-4.5-0.4-6.8c0-0.1,0-0.2,0-0.3v-79.2c0,0,0.1,0,0.1-0.1c1.8-1.1,3.8-2.2,5.7-3.3c4-2.1,8-4.2,12.1-6.2
			c8.2-4,16.6-7.9,25-11.6c8.4-3.7,16.9-7.3,25.5-10.5c4.3-1.6,8.6-3.2,13-4.6c2.2-0.7,4.4-1.3,6.6-1.9c2.2-0.5,4.5-1,6.8-1.2
			c-2.3-0.2-4.6,0-7,0.2c-2.3,0.2-4.6,0.6-6.9,1c-4.6,0.8-9.1,1.8-13.7,2.8c-9.1,2.1-18,4.5-27,7.1c-8.9,2.6-17.8,5.3-26.7,8.3
			c-4.4,1.5-8.9,3-13.3,4.7c-0.1,0-0.3,0.1-0.4,0.1v-78.7c1-0.6,1.9-1.2,2.9-1.8c2.6-1.6,5.3-3.1,8-4.6c5.4-3,10.9-5.8,16.5-8.5
			c11.2-5.3,22.7-10.1,34.5-14.1c11.8-4,23.9-7.2,36.2-9.3c6.2-1.1,12.4-1.7,18.6-2.2c6.3-0.4,12.6-0.4,18.9-0.1
			c-6.2-0.9-12.6-1.5-18.9-1.7c-6.3-0.2-12.7-0.1-19.1,0.4c-12.7,0.9-25.4,2.9-37.8,5.8c-12.5,2.9-24.8,6.5-36.8,10.9
			c-6,2.2-12,4.5-17.9,7c-1.8,0.7-3.5,1.5-5.3,2.3v-8c0-55,10-73,52.2-90.7c7.8,0.8,15.5,1.6,23.3,2.5c15.3,1.8,30.6,4,45.8,6.6
			c15.2,2.6,30.3,5.7,45.1,9.9c7.4,2.1,14.7,4.5,21.8,7.4c3.5,1.5,7,3.2,10.3,5.1c3.3,1.9,6.5,4.2,9.1,7c-2.4-3-5.4-5.6-8.6-7.8
			c-3.2-2.2-6.6-4.2-10-6c-6.9-3.6-14.2-6.6-21.5-9.3c-14.6-5.4-29.6-9.7-44.7-13.6c-15.1-3.9-30.3-7.3-45.6-10.4
			c-0.5-0.1-1-0.2-1.6-0.3c3.6-1.2,7.3-2.5,11.2-3.8l90.4-27.5c12.7,2.7,25.3,5.6,37.8,8.8c15.8,4.1,31.6,8.5,46.9,14.1
			c7.7,2.8,15.2,5.9,22.5,9.6c3.6,1.9,7.2,3.9,10.5,6.3c1.7,1.2,3.3,2.5,4.8,3.8c1.5,1.4,2.9,2.9,4.1,4.6c-1.1-1.8-2.4-3.4-3.8-4.9
			c-1.4-1.5-2.9-2.9-4.5-4.2c-3.2-2.6-6.6-5-10.1-7.2c-7.1-4.3-14.5-8-22-11.5c-15.1-6.8-30.6-12.6-46.2-17.9
			c-7.3-2.5-14.6-4.8-21.9-7.1l91-27.7c7.4,2.4,14.8,4.9,22.1,7.5c15.4,5.5,30.6,11.4,45.3,18.4c7.3,3.5,14.6,7.3,21.4,11.7
			c3.4,2.2,6.7,4.6,9.8,7.3c1.6,1.3,3,2.8,4.4,4.3c1.3,1.5,2.6,3.2,3.6,5c-0.9-1.9-2-3.6-3.2-5.3c-1.3-1.6-2.6-3.2-4.1-4.7
			c-2.9-2.9-6.1-5.6-9.4-8.1c-6.6-5-13.6-9.4-20.8-13.5c-14.3-8.2-29.2-15.3-44.3-22c-3.7-1.6-7.4-3.2-11.1-4.8
			c26.6-8.4,65.7-18.4,115.2,21l51.8,36.3c0.9,0.6,1.3,1.7,1,2.7l0.5-0.2c0.9-0.3,1.8-0.1,2.5,0.4c34.5,29.2,49.6,49.2,49.6,75.3
			l0,189.9C536.6,388.8,538.3,411.4,497,450.3z M528.1,164.3c0-56.5-51.5-63.4-77.8-55.4l-237.7,70.4c-43.1,12-70.6,40.9-70.6,83.2
			v209.7c0,52.8,57.4,63.6,77.9,57.4l238.9-69.8c56.1-16.3,69.3-68.1,69.3-94.4V164.3z"/>
		<g>
			<text transform="matrix(1 0 0 1 20.8283 653.8879)" class="st42 st43 st44">YusoSushi</text>
		</g>
		<g>
			<text transform="matrix(0.6011 -0.9462 -0.8441 -0.5362 111.1917 585.1784)" class="st42 st43 st45">,</text>
		</g>
		<g>
			<text transform="matrix(-0.6011 -0.9462 0.8441 -0.5362 225.8486 585.1784)" class="st42 st43 st45">,</text>
		</g>
	</g>
</g>
<g id="Warstwa_4">
</g>
</svg>
