<?xml version="1.0" encoding="utf-8"?>
<!-- Generator: Adobe Illustrator 24.1.2, SVG Export Plug-In . SVG Version: 6.00 Build 0)  -->
<svg version="1.1" id="Warstwa_1" xmlns="http://www.w3.org/2000/svg" xmlns:xlink="http://www.w3.org/1999/xlink" x="0px" y="0px"
	 viewBox="0 0 50 50" style="enable-background:new 0 0 50 50;" xml:space="preserve"  fill="white">
<g>
	<path d="M9.1,40.7c-1.8-0.4-3.4-1.1-4.9-2.3c-2.8-2.3-4.2-5.2-4.2-8.8c0-6.1,0-12.1,0-18.2C0.1,5.6,4.1,1,9.8,0.2
		C10.4,0.1,11,0,11.6,0c8.9,0,17.8,0,26.8,0C44,0,48.6,3.7,49.7,9.1c0.2,0.8,0.2,1.6,0.2,2.4c0,6,0,12,0,17.9
		c0,5.6-3.8,10.2-9.3,11.3c-0.8,0.2-1.6,0.2-2.4,0.2c-4,0-8,0-12,0c-0.3,0-0.7,0.1-1,0.3c-4.2,2.7-8.3,5.5-12.4,8.3
		c-1.4,1-3.2,0.4-3.6-1.2c-0.1-0.3-0.1-0.6-0.1-0.9c0-2,0-4.1,0-6.1C9.1,41.1,9.1,40.9,9.1,40.7z M25,18.2c3.3,0,6.6,0,9.9,0
		c1.3,0,2.5,0,3.8,0c1.1,0,2-0.9,2.2-1.9c0.2-1.1-0.5-2.2-1.5-2.5c-0.4-0.1-0.8-0.1-1.2-0.1c-8.8,0-17.6,0-26.4,0
		c-0.2,0-0.4,0-0.5,0c-1,0.1-1.7,0.6-2,1.5c-0.6,1.5,0.5,3,2.2,3C16,18.2,20.5,18.2,25,18.2z M25,27.3c2.6,0,5.2,0,7.8,0
		c0.5,0,1,0,1.4,0c1.5-0.1,2.5-1.5,2.1-2.9c-0.3-1-1.2-1.6-2.4-1.6c-5.9,0-11.8,0-17.7,0c-0.1,0-0.3,0-0.4,0c-1,0.1-1.8,0.8-2,1.8
		c-0.3,1.5,0.7,2.7,2.3,2.8C19,27.3,22,27.3,25,27.3z"/>
</g>
</svg>
