<?xml version="1.0" encoding="utf-8"?>
<!-- Generator: Adobe Illustrator 24.1.2, SVG Export Plug-In . SVG Version: 6.00 Build 0)  -->
<svg version="1.1" id="Warstwa_1" xmlns="http://www.w3.org/2000/svg" xmlns:xlink="http://www.w3.org/1999/xlink" x="0px" y="0px"
	 viewBox="0 0 38 44" style="enable-background:new 0 0 38 44;" xml:space="preserve">
<style type="text/css">
	.st0{fill:#FFFFFF;}
	.st1{fill-rule:evenodd;clip-rule:evenodd;fill:#DD1C21;}
	.st2{display:none;fill:#FFFFFF;}
</style>
<path class="st0" d="M35.2,21.7c-1-0.9-1.9-2-2.5-3.2c-0.4-1.1-0.8-2.3-1-3.4c0.7-0.5,1.3-1,2-1.5c0.7-0.7,1.3-1.4,1.9-2.3
	c0,0-2.3-0.3-4-0.5c-1.1-0.2-2.2-0.5-3.2-1.1c0.1-0.6,0.2-1.1,0.2-1.7c0-1.1-0.2-2.2-0.5-3.2C27.5,3.3,26.6,2,25.5,1
	c-0.5-0.4-1.1-0.8-1.8-1c0,0-0.6,1.2-1,2c-0.4,0.8-1,1.5-1.7,2c-0.6,0.4-1.3,0.7-2,0.9c-0.7-0.2-1.4-0.5-2-0.9
	c-0.7-0.6-1.3-1.3-1.7-2c-0.4-0.7-1-2-1-2c-0.6,0.2-1.3,0.5-1.8,1c-1.2,1-2,2.3-2.5,3.8C9.7,5.8,9.5,6.9,9.5,8c0,0.6,0,1.1,0.2,1.7
	c-1,0.6-2.1,0.9-3.2,1.1c-1.7,0.3-4,0.5-4,0.5c0.6,0.8,1.2,1.6,1.9,2.3c0.6,0.6,1.3,1.1,2,1.5c-0.2,1.2-0.5,2.3-1,3.4
	c-0.6,1.2-1.5,2.3-2.5,3.2C2,22.4,0,23.8,0,23.8s2,3.3,3,4.7c0.8,1,3.6,4.6,5,6.1c1.4,1.5,4,3.9,5.4,5.1c1.4,1.2,5.3,4.1,5.6,4.2h0
	c0.3-0.2,4.2-3.1,5.6-4.2c1.4-1.2,4-3.5,5.4-5.1c1.4-1.5,4.3-5,5-6.1c1-1.4,3-4.7,3-4.7S36.1,22.4,35.2,21.7z M5.5,12.3
	c1.2-0.1,2.3-0.3,3.4-0.5c0.8-0.2,1.5-0.6,2.2-1c0.6,1,1.4,1.9,2.2,2.8c0.7,0.7,1.4,1.3,2.2,1.8c0,0-1.9-2.2-2.5-3
	c-0.5-0.7-0.9-1.5-1.2-2.3c-0.3-0.7-0.5-1.4-0.6-2.2c-0.1-0.6,0-1.3,0.1-1.9c0.2-0.8,0.5-1.6,0.9-2.3C12.7,3.3,13,3,13.3,2.7
	c0.2,0.4,0.5,0.8,0.7,1.1c0.3,0.4,0.7,0.8,1.1,1.1c-0.3,0.3-0.5,0.7-0.6,1.1c-0.2,0.6-0.3,1.3-0.3,2c0.1,0.5,0.2,1,0.4,1.5
	c0.4-0.2,0.8-0.4,1.2-0.6c0.6-0.3,1.1-0.7,1.6-1.1C18.2,7.1,19,6.4,19,6.4s0.8,0.7,1.6,1.4c0.5,0.4,1,0.8,1.6,1.1
	c0.4,0.2,0.8,0.4,1.2,0.6c0.2-0.5,0.3-1,0.4-1.5c0.1-0.7,0-1.3-0.3-2c-0.2-0.4-0.4-0.7-0.6-1.1c0.4-0.3,0.8-0.7,1.1-1.1
	c0.3-0.3,0.5-0.7,0.7-1.1c0.4,0.2,0.7,0.6,0.9,0.9c0.4,0.7,0.8,1.5,0.9,2.3c0.1,0.6,0.2,1.3,0.1,1.9c-0.1,0.7-0.3,1.5-0.6,2.2
	c-0.3,0.8-0.7,1.6-1.2,2.3c-0.5,0.9-2.5,3-2.5,3c0.8-0.5,1.5-1.1,2.2-1.8c0.8-0.9,1.5-1.8,2.2-2.8c0.7,0.4,1.4,0.8,2.2,1
	c1.1,0.3,2.3,0.4,3.4,0.5c-0.5,0.4-1.1,0.8-1.7,1.1c-1,0.5-3.6,1.5-4.9,2c-1.1,0.4-2.1,0.9-3,1.5c-0.9,0.6-1.8,1.3-2.6,2
	c-0.4,0.4-0.8,0.9-1.2,1.4c-0.4-0.5-0.8-1-1.2-1.4c-0.8-0.7-1.7-1.4-2.6-2c-1-0.6-2-1.1-3-1.5c-1.2-0.5-3.9-1.5-4.9-2
	C6.6,13.1,6.1,12.7,5.5,12.3C5.5,12.3,5.5,12.3,5.5,12.3z M22.7,28.3c0.3-0.4,0.6-0.9,0.8-1.4c0,0,0.9-0.3,1.5-0.4
	c0.5-0.1,1-0.3,1.4-0.5c-0.5,1.3-1.2,2.6-2,3.8c-0.7,1.1-1.6,2.1-2.6,3c-0.8,0.7-1.6,1.2-2.5,1.8V23.8c0.5,0,0.9-0.1,1.4-0.1
	c0.8-0.1,1.7-0.4,1.7-0.4s-0.4,0.8-0.6,1.3s-0.5,1.3-0.5,1.3s0.5-0.7,0.8-1.1c0.3-0.4,1.1-1.9,1.1-1.9c0.3-0.1,0.6-0.3,0.9-0.5
	c0.3-0.2,0.5-0.4,0.7-0.6c0.2-0.4,0.4-0.7,0.5-1.2c0.1-0.4,0.1-0.8,0.1-1.2c0,0-0.3,0.1-0.5,0.3c-0.2,0.1-0.5,0.3-0.5,0.3
	s0.2-0.6,0.4-1c0.1-0.4,0.5-1.6,0.5-1.6s-0.5,1-0.7,1.3c-0.2,0.3-0.6,1.2-0.7,1.3c-0.1,0.1-0.4,0.6-0.4,0.6s-0.5,0.4-0.8,0.6
	l-0.7,0.5v0.8c-0.4,0.2-0.8,0.3-1.3,0.4c-0.7,0.1-1.4,0.2-1.4,0.2l0-2c0.4-0.5,0.8-0.9,1.3-1.3c0.7-0.7,1.4-1.3,2.2-1.8
	c0.7-0.5,1.4-0.9,2.2-1.3c0.9-0.4,2.7-1.1,2.7-1.1s0,1.7-0.1,3.5c0,1.4-0.2,2.8-0.4,4.2c-0.2,1.1-0.4,1.8-0.4,1.8s-1,0.4-1.9,0.7
	c-1.1,0.3-3.1,0.7-3.1,0.7l-0.1,3C21.7,29.4,22.3,28.7,22.7,28.3z M13.2,21.3c0.1,1.2,0.3,2.4,0.6,3.6c0.3,1,0.8,2,1.4,2.9
	c0.4,0.6,0.8,1.1,1.2,1.6l-0.1-3c0,0-0.4-0.1-0.7-0.3c-0.3-0.1-0.6-0.2-1-0.4c-0.2-0.6-0.4-1.2-0.6-1.8c-0.1-0.7-0.3-1.7-0.3-1.7
	c0.9,0.5,1.9,0.9,3,1.1c0.7,0.2,1.4,0.3,2.1,0.4v5.1c0,1.6,0,5.6,0,5.6c-1-0.6-1.9-1.4-2.8-2.1c-1.2-1.2-2.3-2.5-3.1-4
	c-0.9-1.4-1.5-2.9-1.8-4.5c-0.2-1.4-0.3-2.8-0.4-4.2c-0.1-2-0.1-4-0.1-4s1.3,0.5,2.8,1.2c1.3,0.6,2.5,1.4,3.6,2.4
	c0.7,0.5,1.3,1.1,1.7,1.8l0,2c-0.5,0-0.9-0.1-1.4-0.2c-0.4-0.1-0.8-0.2-1.2-0.4l-0.1-0.8c-0.5-0.5-1-0.9-1.5-1.3
	c-0.8-0.6-1.6-1-1.6-1S13.1,20.3,13.2,21.3C13.2,21.3,13.2,21.3,13.2,21.3z M33.2,28.3c-1.1,1.5-2.1,2.7-3.1,3.8
	c-1,1.1-2.3,2.5-2.3,2.5s-0.6-0.9-1-1.5c-0.4-0.5-1.3-1.6-1.3-1.6s0.2,0.5,0.3,1.1c0.2,0.6,0.3,1.2,0.3,1.2s-1.5,1.5-2.4,2.2
	c-0.8,0.7-1.9,1.7-1.9,1.7s0.3,0.2,0.8,0.6c0.5,0.3,0.7,0.5,0.7,0.5s-0.7,0.6-1.2,1c-0.5,0.4-1.8,1.3-1.8,1.3L19,40.4l-1.2,0.8
	c0,0-1.3-0.9-1.8-1.3c-0.5-0.4-1.2-1-1.2-1s0.2-0.2,0.7-0.5s0.8-0.6,0.8-0.6s-1.1-1-1.9-1.7c-0.8-0.7-2.4-2.2-2.4-2.2
	s0.2-0.6,0.3-1.2c0.1-0.4,0.2-0.7,0.3-1.1c0,0-0.9,1-1.3,1.6c-0.4,0.5-1,1.5-1,1.5s-1.4-1.4-2.3-2.5c-1-1.1-2-2.3-3.1-3.8
	c-1.1-1.5-2.7-3.9-2.7-3.9c1.2-0.8,2.3-1.8,3.3-2.8c0.9-1.1,1.6-2.4,1.9-3.7c0.3-1,0.5-2.1,0.5-3.2c0,0,0.5,0.2,1,0.3
	c0.5,0.2,0.8,0.3,0.8,0.3s-0.1,1,0,2.2c0,1.2,0.1,3.5,0.2,5.2c0.1,1.4,0.5,2.8,1.1,4.1c1.1,2.2,2.5,4.2,4.2,5.9
	c1.1,1.1,2.3,2,3.7,2.7c1.4-0.7,2.7-1.6,3.7-2.7c1.7-1.7,3.1-3.7,4.2-5.9c0.6-1.3,1-2.7,1.1-4.1c0.2-1.7,0.2-4,0.2-5.2
	c0-1.2,0-2.2,0-2.2s0.3-0.1,0.8-0.3s1-0.3,1-0.3c0,1.1,0.2,2.2,0.5,3.2c0.4,1.4,1,2.6,1.9,3.7c1,1,2.1,2,3.3,2.8
	C35.9,24.4,34.2,26.9,33.2,28.3C33.2,28.3,33.2,28.3,33.2,28.3z"/>
<path class="st1" d="M23.9,20.7c0,0,0.1,0.5-0.1,0.7c-0.1,0-0.1,0.1-0.2,0.1c-0.1,0-0.1,0-0.2,0c-0.1,0-0.1,0-0.2-0.1
	c-0.1,0-0.1-0.1-0.1-0.1c-0.3,0.2-0.6,0.4-0.6,0.4v1c0.5-0.1,1-0.4,1.4-0.7c0.5-0.5,0.8-1.1,0.9-1.8C24.5,20.4,24.2,20.6,23.9,20.7
	C23.9,20.7,23.9,20.7,23.9,20.7z"/>
</svg>
