<svg clip-rule="evenodd" fill-rule="evenodd" stroke-linejoin="round" stroke-miterlimit="1.41421" viewBox="0 0 560 400" xmlns="http://www.w3.org/2000/svg"><g fill-rule="nonzero"><path d="M264.8064 324.305984c-29.149414-22.171562-50.870792-42.992572-71.354164-68.65306-11.704784-14.63098-30.049782-41.64202-29.937236-44.118032 0-.450184 3.93911-3.601472 8.553496-6.977852 15.981532-11.592238 23.747206-22.171562 27.686316-37.365272l2.25092-9.228772-3.151288-2.138374c-4.839478-3.37638-19.583004-18.57009-19.583004-20.25828 0-1.012914 4.389294-2.025828 14.06825-3.37638 7.653128-1.12546 17.219538-3.038742 21.046102-4.50184l7.090398-2.476012.112546-10.12914c.112546-16.31917 5.177116-29.82469 14.856072-40.178922C240.834102 70.177116 248.374684 65 250.625604 65c.337638 0 2.138374 2.926196 3.93911 6.415122 5.177116 10.241686 9.791502 15.75644 16.094078 19.470458 7.540582 4.276748 11.142054 4.276748 18.682636 0 6.302576-3.714018 10.916962-9.228772 16.094078-19.357912C307.236242 67.926196 309.036978 65 309.374616 65c2.25092 0 9.791502 5.177116 14.180796 9.904048 9.678956 10.354232 14.743526 23.859752 14.856072 40.178922l.112546 10.12914 7.090398 2.476012c3.826564 1.463098 13.392974 3.37638 21.046102 4.50184 9.678956 1.350552 14.06825 2.363466 14.06825 3.37638 0 1.68819-14.743526 16.8819-19.583004 20.25828l-3.151288 2.138374 2.25092 9.228772c3.93911 15.19371 11.704784 25.773034 27.686316 37.365272 4.614386 3.37638 8.553496 6.527668 8.553496 6.977852.112546 2.476012-18.232452 29.487052-29.937236 44.118032-20.82101 25.998126-41.867112 46.256406-70.453796 67.865238-8.553496 6.302576-15.868986 11.592238-16.31917 11.479692-.450184 0-7.202944-4.839478-14.968618-10.69187zm11.2546-9.453864c3.488926-2.81365 4.051656-2.81365 7.990766.112546l3.263834 2.363466 7.765674-5.739846c7.990766-5.964938 11.2546-9.116226 9.56641-9.116226-.56273-.112546-2.476012-1.350552-4.389294-2.81365l-3.37638-2.81365 12.94279-12.154968 12.830244-12.154968-1.800736-6.415122c-.900368-3.488926-1.350552-6.415122-.900368-6.415122.56273 0 3.826564 3.93911 7.428036 8.666042l6.527668 8.666042 7.202944-7.87822c10.69187-11.704784 25.32285-30.049782 33.988892-42.76748l7.653128-11.2546-8.215858-6.415122c-4.50184-3.488926-10.016594-8.553496-12.267514-11.2546-7.202944-8.778588-14.180796-27.01104-14.180796-37.027634 0-2.363466-.112546-4.276748-.337638-4.276748s-2.701104.787822-5.514754 1.68819l-5.06457 1.800736-.675276 23.859752c-.450184 18.795182-1.12546 25.660488-2.926196 32.525794-4.164202 16.206624-15.418802 34.88926-29.487052 49.295148-8.328404 8.553496-22.734292 18.57009-25.32285 17.557176-4.051656-1.575644-15.981532-10.579324-21.94647-16.656808-9.904048-10.12914-17.44463-20.595918-23.522114-32.975978-7.765674-15.75644-8.891134-21.721378-9.791502-49.745332l-.675276-23.747206-4.614386-1.800736c-2.588558-1.012914-4.952024-1.800736-5.289662-1.800736-.450184 0-1.012914 3.151288-1.350552 6.977852-.900368 11.704784-6.527668 25.435396-13.955704 34.439076-2.138374 2.701104-7.653128 7.653128-12.154968 11.2546l-8.328404 6.302576 7.428036 10.804416c12.717698 18.344998 39.3911 50.6457 41.867112 50.6457.450184 0 1.575644-1.463098 2.701104-3.263834 2.25092-3.826564 9.678956-12.94279 10.916962-13.392974.450184-.225092.112546 2.476012-.900368 5.964938l-1.800736 6.302576 5.852392 5.852392c3.151288 3.263834 8.778588 8.44095 12.492606 11.479692 3.714018 3.151288 6.75276 6.19003 6.75276 6.865306.112546.675276-1.68819 2.476012-3.93911 4.051656l-3.93911 2.926196 4.839478 3.826564c8.103312 6.415122 12.717698 9.904048 13.280428 9.904048.337638 0 1.800736-1.012914 3.37638-2.25092zm25.32285-54.134626c3.714018-3.93911 8.666042-9.678956 10.916962-12.830244 4.276748-5.964938 12.605152-21.94647 11.479692-21.94647-.337638 0-4.164202 1.012914-8.44095 2.363466-6.977852 2.138374-8.103312 2.81365-10.579324 7.090398-1.575644 2.588558-4.051656 5.964938-5.6273 7.428036l-2.81365 2.588558v-9.116226c0-9.116226 0-9.228772 3.151288-9.791502 7.540582-1.575644 20.708464-5.177116 24.309936-6.640214 3.37638-1.350552 3.93911-2.363466 5.177116-7.653128 2.025828-9.453864 3.37638-23.972298 3.37638-37.815456 0-14.856072 1.350552-14.180796-14.293342-6.977852-11.929876 5.514754-18.232452 9.904048-28.1365 19.583004-8.215858 7.765674-8.215858 7.765674-8.215858 13.843158v6.077484l4.276748-.675276c8.553496-1.463098 11.479692-2.81365 11.479692-5.402208 0-1.68819 1.800736-3.826564 5.289662-6.415122 3.714018-2.701104 6.75276-6.415122 9.791502-12.042422 2.476012-4.50184 4.726932-7.990766 4.839478-7.765674.225092.225092-.450184 2.476012-1.350552 5.177116-2.25092 6.415122-2.138374 6.865306 1.12546 6.077484 2.701104-.675276 2.81365-.450184 2.138374 3.038742-1.463098 7.31549-3.714018 11.029508-9.228772 14.968618-3.151288 2.363466-6.75276 6.19003-8.44095 9.341318-3.263834 5.852392-8.103312 12.154968-7.202944 9.341318.337638-.900368 1.68819-4.389294 2.926196-7.765674l2.476012-6.077484-3.263834.675276c-1.800736.337638-5.852392 1.012914-9.116226 1.463098l-5.739846.787822v65.051588l6.527668-4.389294c3.488926-2.476012 9.453864-7.653128 13.167882-11.592238zm-23.07193-17.106992v-31.963064l-8.666042-1.913282c-4.839478-1.012914-11.704784-3.038742-15.19371-4.50184l-6.527668-2.701104.56273 2.476012c1.913282 9.341318 3.263834 14.968618 3.93911 16.31917.450184.900368 3.038742 2.476012 5.739846 3.601472l4.952024 1.913282.337638 9.228772c.225092 5.402208-.112546 8.891134-.675276 8.553496-2.81365-1.68819-11.81733-16.769354-14.293342-23.859752-2.701104-7.87822-6.302576-34.439076-4.839478-36.01472 1.68819-1.68819 18.907728 12.267514 18.907728 15.306256 0 1.12546.675276 2.476012 1.463098 3.151288 1.012914.900368 11.479692 3.601472 13.730612 3.601472.337638 0 .56273-2.81365.56273-6.302576 0-6.077484-.112546-6.415122-6.415122-12.717698-10.016594-9.904048-25.998126-19.69555-41.304382-25.32285-2.025828-.675276-2.138374 0-1.463098 21.496286.450184 17.106992 1.12546 24.309936 2.926196 30.837604 5.177116 19.808096 20.483372 42.542388 36.915088 54.922448 4.276748 3.151288 7.990766 5.739846 8.553496 5.739846.450184 0 .787822-14.293342.787822-31.850518zm21.94647-72.59217c8.778588-5.852392 16.994446-9.791502 34.88926-16.994446 8.103312-3.151288 17.44463-7.428036 20.82101-9.341318l6.19003-3.601472-7.090398-.900368c-8.666042-1.012914-18.682636-3.714018-23.409568-6.527668l-3.601472-2.025828-4.164202 6.077484c-4.276748 6.19003-15.643894 17.332084-19.920642 19.69555-3.038742 1.575644-2.138374.225092 5.289662-8.553496 7.540582-8.891134 11.142054-15.306256 14.743526-25.998126 2.476012-7.31549 2.81365-10.12914 2.25092-15.981532-.675276-7.653128-5.177116-19.13282-8.778588-22.396654-2.138374-1.913282-2.25092-1.800736-5.177116 1.913282-1.68819 2.138374-4.164202 5.06457-5.6273 6.302576l-2.588558 2.476012 2.25092 3.714018c2.926196 5.177116 3.826564 10.241686 2.926196 16.544262-1.12546 8.215858-1.68819 8.666042-7.090398 5.964938-2.476012-1.238006-8.328404-5.289662-13.055336-9.116226-4.726932-3.714018-8.778588-6.75276-9.116226-6.75276s-4.389294 3.038742-9.116226 6.75276c-7.202944 5.739846-15.868986 11.2546-17.782268 11.2546-.225092 0-1.012914-2.588558-1.800736-5.6273-1.68819-6.865306-.787822-13.955704 2.363466-19.020274l2.25092-3.714018-5.289662-5.739846c-2.926196-3.263834-5.514754-6.077484-5.739846-6.302576-.675276-1.012914-4.051656 2.926196-6.527668 7.87822-4.051656 7.87822-5.6273 18.232452-4.051656 25.998126 2.025828 9.453864 9.116226 22.959384 16.994446 32.188156 3.826564 4.614386 6.75276 8.553496 6.415122 8.778588-1.68819 1.68819-20.595918-17.219538-24.422482-24.309936-1.12546-2.138374-1.238006-2.138374-4.839478 0-4.726932 2.81365-14.743526 5.514754-23.522114 6.527668l-7.090398.900368 6.19003 3.601472c3.37638 1.913282 12.717698 6.19003 20.82101 9.341318 26.44831 10.579324 38.153094 17.44463 49.52024 29.036868l5.514754 5.739846 6.865306-6.640214c3.714018-3.601472 9.791502-8.666042 13.50552-11.142054z"/><path d="M302.171672 201.068114c.337638-3.37638.787822-3.826564 4.051656-4.164202 2.701104-.225092 3.601472-.900368 3.601472-2.476012 0-2.138374 4.051656-5.289662 5.289662-4.051656 1.575644 1.575644-3.93911 9.341318-8.44095 11.81733l-4.839478 2.588558z" fill="#ef3d23"/></g></svg>