<svg id="Warstwa_1" data-name="Warstwa 1" xmlns="http://www.w3.org/2000/svg" viewBox="0 0 115 44"><defs><style>.cls-1{fill:#fff;}.cls-2{fill:#dd1c21;fill-rule:evenodd;}</style></defs><path class="cls-1" d="M35.16,21.71a11.27,11.27,0,0,1-2.5-3.17,18.62,18.62,0,0,1-1-3.43,17.37,17.37,0,0,0,2-1.54,16.21,16.21,0,0,0,1.89-2.25s-2.33-.29-4-.55a8.84,8.84,0,0,1-3.2-1.11A5.65,5.65,0,0,0,28.52,8,9.23,9.23,0,0,0,28,4.8,8.61,8.61,0,0,0,25.47,1,5.07,5.07,0,0,0,23.7,0s-.55,1.22-1,2A6.52,6.52,0,0,1,21,4a6,6,0,0,1-2,.88A5.64,5.64,0,0,1,17,4a6.52,6.52,0,0,1-1.72-2c-.42-.75-1-2-1-2a5.07,5.07,0,0,0-1.77,1A8.66,8.66,0,0,0,10,4.8,9.23,9.23,0,0,0,9.49,8a5.44,5.44,0,0,0,.18,1.7,9.1,9.1,0,0,1-3.2,1.11c-1.67.26-4,.54-4,.54a16.29,16.29,0,0,0,1.89,2.26,16.12,16.12,0,0,0,2,1.53,17.87,17.87,0,0,1-1,3.43,11.1,11.1,0,0,1-2.49,3.17C2,22.43,0,23.85,0,23.85s2,3.3,3,4.74c.76,1,3.56,4.55,5,6.08s4,3.86,5.44,5.09S18.74,43.82,19,44h0c.26-.18,4.2-3.06,5.57-4.24s4-3.55,5.43-5.09,4.25-5,5-6.08c1-1.44,3-4.74,3-4.74S36.06,22.43,35.16,21.71ZM5.55,12.32A23.35,23.35,0,0,0,9,11.8a9,9,0,0,0,2.21-1,19.31,19.31,0,0,0,2.18,2.76,14.78,14.78,0,0,0,2.24,1.77s-1.94-2.18-2.49-3A12.41,12.41,0,0,1,12,10a8.59,8.59,0,0,1-.56-2.16,6.14,6.14,0,0,1,.13-1.91,7,7,0,0,1,.92-2.29,2.64,2.64,0,0,1,.87-.92,8.14,8.14,0,0,0,.74,1.1,9.7,9.7,0,0,0,1.11,1.11,5,5,0,0,0-.65,1,4.06,4.06,0,0,0-.26,2,7.94,7.94,0,0,0,.37,1.53,6.46,6.46,0,0,0,1.18-.58,14.81,14.81,0,0,0,1.58-1.15C18.24,7.08,19,6.41,19,6.41s.76.68,1.62,1.37a14.64,14.64,0,0,0,1.58,1.13,5.92,5.92,0,0,0,1.18.59A7.42,7.42,0,0,0,23.77,8a4.06,4.06,0,0,0-.26-2,5.41,5.41,0,0,0-.65-1A9.61,9.61,0,0,0,24,3.83a8.21,8.21,0,0,0,.75-1.1,2.84,2.84,0,0,1,.87.92,7,7,0,0,1,.92,2.29,6.46,6.46,0,0,1,.13,1.91A8.48,8.48,0,0,1,26.07,10a11.84,11.84,0,0,1-1.16,2.27c-.54.86-2.48,3-2.48,3a14.59,14.59,0,0,0,2.24-1.76,19.4,19.4,0,0,0,2.18-2.77,9,9,0,0,0,2.21,1,21.88,21.88,0,0,0,3.42.51,9.63,9.63,0,0,1-1.71,1.11c-1,.5-3.64,1.5-4.88,2a18,18,0,0,0-3,1.55,19.08,19.08,0,0,0-2.64,2A12.5,12.5,0,0,0,19,20.38,11.55,11.55,0,0,0,17.8,19a18.39,18.39,0,0,0-2.64-2,17.17,17.17,0,0,0-3-1.54c-1.24-.5-3.93-1.5-4.89-2a11.23,11.23,0,0,1-1.7-1.1Zm17.1,16c.29-.44.56-.89.81-1.36L25,26.52A10.46,10.46,0,0,0,26.4,26a21.74,21.74,0,0,1-2,3.77,16.31,16.31,0,0,1-2.63,3,18.74,18.74,0,0,1-2.47,1.76V23.8a12.46,12.46,0,0,0,1.37-.14c.84-.13,1.74-.37,1.74-.37l-.56,1.34c-.21.51-.55,1.3-.55,1.3s.52-.66.78-1.05S23.12,23,23.12,23a9.93,9.93,0,0,0,.91-.49,3.45,3.45,0,0,0,.69-.63,4.45,4.45,0,0,0,.53-1.15,4.93,4.93,0,0,0,.15-1.2l-.54.26-.48.27s.24-.62.35-1,.51-1.59.51-1.59-.48,1-.66,1.35-.64,1.15-.73,1.3-.41.57-.41.57l-.81.57-.69.5v.82a8.06,8.06,0,0,1-1.27.38c-.67.11-1.38.18-1.38.18v-2a12.58,12.58,0,0,1,1.29-1.34A20.07,20.07,0,0,1,22.79,18,12.46,12.46,0,0,1,25,16.68c.89-.4,2.65-1.09,2.65-1.09s0,1.67,0,3.46a29.27,29.27,0,0,1-.39,4.18,18,18,0,0,1-.41,1.82s-1,.39-1.89.68-3.14.7-3.14.7l-.08,3S22.35,28.69,22.65,28.29Zm-9.47-7a17.84,17.84,0,0,0,.57,3.57,10,10,0,0,0,1.38,2.89,19.12,19.12,0,0,0,1.19,1.61l-.06-3s-.35-.14-.74-.27a8,8,0,0,1-1-.38A9.58,9.58,0,0,1,14,23.92c-.14-.69-.28-1.65-.28-1.65a15.74,15.74,0,0,0,3,1.15,20,20,0,0,0,2,.37v5.07c0,1.61,0,5.65,0,5.65A23,23,0,0,1,16,32.37a19.81,19.81,0,0,1-3.14-4A13.6,13.6,0,0,1,11,23.84a26.22,26.22,0,0,1-.36-4.15c-.09-2-.08-4-.08-4a29.51,29.51,0,0,1,2.8,1.19A16.89,16.89,0,0,1,17,19.26a8.73,8.73,0,0,1,1.74,1.85l0,2a12.39,12.39,0,0,1-1.38-.19,10.22,10.22,0,0,1-1.19-.37l-.08-.85a17.11,17.11,0,0,0-1.53-1.29c-.76-.56-1.56-1-1.56-1s.08.94.16,1.94Zm20,7c-1.09,1.45-2.06,2.65-3.08,3.79s-2.34,2.47-2.34,2.47-.63-.94-1-1.49-1.32-1.56-1.32-1.56.18.47.35,1.06.33,1.19.33,1.19S24.51,35.3,23.7,36l-1.94,1.7s.3.24.77.57l.69.5s-.66.6-1.21,1-1.83,1.31-1.83,1.31L19,40.35l-1.17.8s-1.29-.88-1.83-1.32-1.21-1-1.21-1l.69-.49.77-.57L14.32,36C13.52,35.31,12,33.8,12,33.8l.33-1.2c.1-.36.22-.71.35-1.05,0,0-.91,1-1.32,1.56s-1,1.49-1,1.49S8.94,33.23,8,32.13s-2-2.34-3.08-3.8-2.7-3.9-2.7-3.9a23,23,0,0,0,3.3-2.78,9.85,9.85,0,0,0,2-3.72,11.5,11.5,0,0,0,.51-3.19l1,.34.83.31s0,1,0,2.21.07,3.51.25,5.22a12.24,12.24,0,0,0,1.15,4.11,21.88,21.88,0,0,0,4.15,5.89A12.7,12.7,0,0,0,19,35.5a12.27,12.27,0,0,0,3.74-2.68,21.92,21.92,0,0,0,4.16-5.89A12,12,0,0,0,28,22.82c.19-1.71.21-4,.25-5.22s0-2.21,0-2.21l.82-.31,1-.34a11.14,11.14,0,0,0,.51,3.19,9.71,9.71,0,0,0,2,3.72,22.49,22.49,0,0,0,3.3,2.78s-1.61,2.45-2.7,3.9Z"/><path class="cls-2" d="M23.93,20.74s.11.52-.13.69a.54.54,0,0,1-.18.1.5.5,0,0,1-.21,0,.44.44,0,0,1-.19-.07.4.4,0,0,1-.15-.14l-.58.42v1a4.34,4.34,0,0,0,1.43-.66,3.08,3.08,0,0,0,.86-1.8,4.75,4.75,0,0,0-.85.48Z"/><path class="cls-1" d="M49.79,21.26V28.7H47.87l-.06-.82a2.3,2.3,0,0,1-.85.73,2.17,2.17,0,0,1-1.09.23,2.41,2.41,0,0,1-1.21-.26,2.48,2.48,0,0,1-.94-.82c-.49-.77-.63-1.63-.63-3.68V19.61c0-2.29.16-3.13.76-3.8a3.34,3.34,0,0,1,1.23-.76,3.55,3.55,0,0,1,1.44-.18,3.22,3.22,0,0,1,2.66,1,4.15,4.15,0,0,1,.61,2.64v.73H47.65v-.84c0-1-.33-1.47-1.08-1.47-.94,0-1.13.49-1.13,3v3.84c0,2.51.22,3.1,1.11,3.1a1,1,0,0,0,.92-.55,3.47,3.47,0,0,0,.18-1.53V23.3H46.59v-2Zm7.78,7.44H50.91c.05-3.3.7-4.94,3.11-7.8,1-1.27,1.27-1.78,1.27-2.65s-.37-1.47-1-1.47a.91.91,0,0,0-.45.11.81.81,0,0,0-.34.32,2.12,2.12,0,0,0-.22,1.26v1.31H51v-.94a4.44,4.44,0,0,1,.59-2.71,3.21,3.21,0,0,1,2.8-1.25,3.08,3.08,0,0,1,3.31,3.37c0,1.35-.33,2.07-1.7,3.78-1.84,2.27-2.34,3.15-2.59,4.58h4.21ZM68.34,17.26h-4v3.45h3.74v2H64.38v3.82h4.19V28.7H62V15.08h6.31Zm5.27,2.33v-.8c0-1.32-.33-1.9-1.06-1.9s-1,.45-1,1.21.3,1.27,1.28,2.1l1.35,1.17c1.78,1.53,2.15,2.22,2.15,4,0,2.31-1.23,3.51-3.58,3.51s-3.47-1.18-3.47-3.74V23.7h2.25v1.1c0,1.37.43,2.09,1.26,2.09S74,26.4,74,25.41s-.21-1.26-1.08-2l-1.29-1.12a7,7,0,0,1-1.72-1.72,3.85,3.85,0,0,1-.55-2.25c0-2.26,1.12-3.41,3.29-3.41a3.59,3.59,0,0,1,1.3.18,3.3,3.3,0,0,1,1.13.66,3.64,3.64,0,0,1,.82,2.74v1.14Zm5.92,9.11H77.19V15.08h3.33c1.49,0,2.1.14,2.57.57s.86,1.53.86,3.27c0,2.86-.76,3.8-3,3.8H79.54Zm.8-8c.94,0,1.23-.42,1.23-1.81a2.43,2.43,0,0,0-.39-1.66c-.16-.15-.39-.21-.92-.21h-.72v3.68Zm11.3,3.74c0,2.07-.16,2.76-.78,3.45a4,4,0,0,1-2.63,1,4,4,0,0,1-2.64-1c-.61-.69-.77-1.38-.77-3.45V19.3c0-2.06.16-2.75.77-3.45a4.07,4.07,0,0,1,2.64-1,4,4,0,0,1,2.63,1c.62.7.78,1.39.78,3.45Zm-4.48,0c0,2.05.23,2.58,1.07,2.58s1.06-.53,1.06-2.58V19.35c0-2-.22-2.58-1.06-2.58s-1.07.53-1.07,2.58Zm8.1,4.27H92.9V15.08h3.23c1.43,0,2.12.14,2.59.57s.82,1.49.82,3.12c0,2-.27,2.48-1.6,2.78,1.17.21,1.52.72,1.52,2.35v2a9.05,9.05,0,0,0,.22,2.84H97.21A9,9,0,0,1,97.1,27V24.49c0-1.49-.33-2-1.32-2h-.53Zm.67-8.09c1.06,0,1.37-.43,1.37-1.82S97,17,96,17h-.71v3.63Zm9,8.09h-2.35V17.18h-2.37v-2.1h7.09v2.1h-2.37Zm7.19-9.11v-.8c0-1.32-.33-1.89-1.06-1.89s-1,.44-1,1.2.31,1.27,1.29,2.1l1.34,1.17c1.78,1.53,2.15,2.22,2.15,4,0,2.31-1.23,3.51-3.58,3.51s-3.47-1.18-3.47-3.73V23.7H110v1.1c0,1.37.43,2.09,1.26,2.09s1.15-.49,1.15-1.48-.21-1.26-1.09-2l-1.28-1.12a7,7,0,0,1-1.72-1.72,3.85,3.85,0,0,1-.55-2.25c0-2.26,1.12-3.41,3.29-3.41a3.37,3.37,0,0,1,2.43.84,3.64,3.64,0,0,1,.82,2.74v1.14Z"/></svg>