<?xml version="1.0" encoding="utf-8"?>
<!-- Generator: Adobe Illustrator 24.1.2, SVG Export Plug-In . SVG Version: 6.00 Build 0)  -->
<svg version="1.1" id="Warstwa_1" xmlns="http://www.w3.org/2000/svg" xmlns:xlink="http://www.w3.org/1999/xlink" x="0px" y="0px"
	 viewBox="0 0 75.1 72" style="enable-background:new 0 0 75.1 72;" xml:space="preserve">
<style type="text/css">
	.st0{display:none;}
	.st1{opacity:0.24;fill:#FFFFFF;}
	.st2{opacity:0.24;fill-rule:evenodd;clip-rule:evenodd;fill:#DD1C21;}
	.st3{display:none;fill:#FFFFFF;}
</style>
<rect x="-5.3" y="6" class="st0" width="72.3" height="57.1"/>
<path class="st1" d="M53.7,35.7c-1-0.9-1.9-2-2.5-3.2c-0.4-1.1-0.8-2.3-1-3.4c0.7-0.5,1.3-1,2-1.5c0.7-0.7,1.3-1.4,1.9-2.3
	c0,0-2.3-0.3-4-0.5c-1.1-0.2-2.2-0.5-3.2-1.1c0.1-0.6,0.2-1.1,0.2-1.7c0-1.1-0.2-2.2-0.5-3.2C46.1,17.3,45.2,16,44,15
	c-0.5-0.4-1.1-0.8-1.8-1c0,0-0.6,1.2-1,2c-0.4,0.8-1,1.5-1.7,2c-0.6,0.4-1.3,0.7-2,0.9c-0.7-0.2-1.4-0.5-2-0.9
	c-0.7-0.6-1.3-1.3-1.7-2c-0.4-0.7-1-2-1-2c-0.6,0.2-1.3,0.5-1.8,1c-1.2,1-2,2.3-2.5,3.8c-0.4,1-0.5,2.1-0.5,3.2c0,0.6,0,1.1,0.2,1.7
	c-1,0.6-2.1,0.9-3.2,1.1c-1.7,0.3-4,0.5-4,0.5c0.6,0.8,1.2,1.6,1.9,2.3c0.6,0.6,1.3,1.1,2,1.5c-0.2,1.2-0.5,2.3-1,3.4
	c-0.6,1.2-1.5,2.3-2.5,3.2c-0.9,0.7-2.9,2.1-2.9,2.1s2,3.3,3,4.7c0.8,1,3.6,4.6,5,6.1c1.4,1.5,4,3.9,5.4,5.1
	c1.4,1.2,5.3,4.1,5.6,4.2h0c0.3-0.2,4.2-3.1,5.6-4.2c1.4-1.2,4-3.5,5.4-5.1c1.4-1.5,4.3-5,5-6.1c1-1.4,3-4.7,3-4.7
	S54.6,36.4,53.7,35.7z M24.1,26.3c1.2-0.1,2.3-0.3,3.4-0.5c0.8-0.2,1.5-0.6,2.2-1c0.6,1,1.4,1.9,2.2,2.8c0.7,0.7,1.4,1.3,2.2,1.8
	c0,0-1.9-2.2-2.5-3c-0.5-0.7-0.9-1.5-1.2-2.3c-0.3-0.7-0.5-1.4-0.6-2.2c-0.1-0.6,0-1.3,0.1-1.9c0.2-0.8,0.5-1.6,0.9-2.3
	c0.2-0.4,0.5-0.7,0.9-0.9c0.2,0.4,0.5,0.8,0.7,1.1c0.3,0.4,0.7,0.8,1.1,1.1c-0.3,0.3-0.5,0.7-0.6,1.1c-0.2,0.6-0.3,1.3-0.3,2
	c0.1,0.5,0.2,1,0.4,1.5c0.4-0.2,0.8-0.4,1.2-0.6c0.6-0.3,1.1-0.7,1.6-1.1c0.9-0.7,1.6-1.4,1.6-1.4s0.8,0.7,1.6,1.4
	c0.5,0.4,1,0.8,1.6,1.1c0.4,0.2,0.8,0.4,1.2,0.6c0.2-0.5,0.3-1,0.4-1.5c0.1-0.7,0-1.3-0.3-2c-0.2-0.4-0.4-0.7-0.6-1.1
	c0.4-0.3,0.8-0.7,1.1-1.1c0.3-0.3,0.5-0.7,0.7-1.1c0.4,0.2,0.7,0.6,0.9,0.9c0.4,0.7,0.8,1.5,0.9,2.3c0.1,0.6,0.2,1.3,0.1,1.9
	c-0.1,0.7-0.3,1.5-0.6,2.2c-0.3,0.8-0.7,1.6-1.2,2.3c-0.5,0.9-2.5,3-2.5,3c0.8-0.5,1.5-1.1,2.2-1.8c0.8-0.9,1.5-1.8,2.2-2.8
	c0.7,0.4,1.4,0.8,2.2,1c1.1,0.3,2.3,0.4,3.4,0.5c-0.5,0.4-1.1,0.8-1.7,1.1c-1,0.5-3.6,1.5-4.9,2c-1.1,0.4-2.1,0.9-3,1.5
	c-0.9,0.6-1.8,1.3-2.6,2c-0.4,0.4-0.8,0.9-1.2,1.4c-0.4-0.5-0.8-1-1.2-1.4c-0.8-0.7-1.7-1.4-2.6-2c-1-0.6-2-1.1-3-1.5
	c-1.2-0.5-3.9-1.5-4.9-2C25.2,27.1,24.6,26.7,24.1,26.3C24.1,26.3,24.1,26.3,24.1,26.3z M41.2,42.3c0.3-0.4,0.6-0.9,0.8-1.4
	c0,0,0.9-0.3,1.5-0.4c0.5-0.1,1-0.3,1.4-0.5c-0.5,1.3-1.2,2.6-2,3.8c-0.7,1.1-1.6,2.1-2.6,3c-0.8,0.7-1.6,1.2-2.5,1.8V37.8
	c0.5,0,0.9-0.1,1.4-0.1c0.8-0.1,1.7-0.4,1.7-0.4s-0.4,0.8-0.6,1.3c-0.2,0.5-0.5,1.3-0.5,1.3s0.5-0.7,0.8-1.1
	c0.3-0.4,1.1-1.9,1.1-1.9c0.3-0.1,0.6-0.3,0.9-0.5c0.3-0.2,0.5-0.4,0.7-0.6c0.2-0.4,0.4-0.7,0.5-1.2c0.1-0.4,0.1-0.8,0.1-1.2
	c0,0-0.3,0.1-0.5,0.3c-0.2,0.1-0.5,0.3-0.5,0.3s0.2-0.6,0.4-1c0.1-0.4,0.5-1.6,0.5-1.6s-0.5,1-0.7,1.3c-0.2,0.3-0.6,1.2-0.7,1.3
	c-0.1,0.1-0.4,0.6-0.4,0.6s-0.5,0.4-0.8,0.6l-0.7,0.5v0.8c-0.4,0.2-0.8,0.3-1.3,0.4c-0.7,0.1-1.4,0.2-1.4,0.2l0-2
	c0.4-0.5,0.8-0.9,1.3-1.3c0.7-0.7,1.4-1.3,2.2-1.8c0.7-0.5,1.4-0.9,2.2-1.3c0.9-0.4,2.7-1.1,2.7-1.1s0,1.7-0.1,3.5
	c0,1.4-0.2,2.8-0.4,4.2c-0.2,1.1-0.4,1.8-0.4,1.8s-1,0.4-1.9,0.7c-1.1,0.3-3.1,0.7-3.1,0.7l-0.1,3C40.3,43.4,40.9,42.7,41.2,42.3z
	 M31.7,35.3c0.1,1.2,0.3,2.4,0.6,3.6c0.3,1,0.8,2,1.4,2.9c0.4,0.6,0.8,1.1,1.2,1.6l-0.1-3c0,0-0.4-0.1-0.7-0.3
	c-0.3-0.1-0.6-0.2-1-0.4c-0.2-0.6-0.4-1.2-0.6-1.8c-0.1-0.7-0.3-1.7-0.3-1.7c0.9,0.5,1.9,0.9,3,1.1c0.7,0.2,1.4,0.3,2.1,0.4v5.1
	c0,1.6,0,5.6,0,5.6c-1-0.6-1.9-1.4-2.8-2.1c-1.2-1.2-2.3-2.5-3.1-4c-0.9-1.4-1.5-2.9-1.8-4.5c-0.2-1.4-0.3-2.8-0.4-4.2
	c-0.1-2-0.1-4-0.1-4s1.3,0.5,2.8,1.2c1.3,0.6,2.5,1.4,3.6,2.4c0.7,0.5,1.3,1.1,1.7,1.8l0,2c-0.5,0-0.9-0.1-1.4-0.2
	c-0.4-0.1-0.8-0.2-1.2-0.4l-0.1-0.8c-0.5-0.5-1-0.9-1.5-1.3c-0.8-0.6-1.6-1-1.6-1S31.7,34.3,31.7,35.3
	C31.7,35.3,31.7,35.3,31.7,35.3z M51.7,42.3c-1.1,1.5-2.1,2.7-3.1,3.8c-1,1.1-2.3,2.5-2.3,2.5s-0.6-0.9-1-1.5
	c-0.4-0.5-1.3-1.6-1.3-1.6s0.2,0.5,0.3,1.1c0.2,0.6,0.3,1.2,0.3,1.2s-1.5,1.5-2.4,2.2c-0.8,0.7-1.9,1.7-1.9,1.7s0.3,0.2,0.8,0.6
	c0.5,0.3,0.7,0.5,0.7,0.5s-0.7,0.6-1.2,1c-0.5,0.4-1.8,1.3-1.8,1.3l-1.2-0.8l-1.2,0.8c0,0-1.3-0.9-1.8-1.3c-0.5-0.4-1.2-1-1.2-1
	s0.2-0.2,0.7-0.5c0.5-0.3,0.8-0.6,0.8-0.6s-1.1-1-1.9-1.7c-0.8-0.7-2.4-2.2-2.4-2.2s0.2-0.6,0.3-1.2c0.1-0.4,0.2-0.7,0.3-1.1
	c0,0-0.9,1-1.3,1.6c-0.4,0.5-1,1.5-1,1.5s-1.4-1.4-2.3-2.5c-1-1.1-2-2.3-3.1-3.8c-1.1-1.5-2.7-3.9-2.7-3.9c1.2-0.8,2.3-1.8,3.3-2.8
	c0.9-1.1,1.6-2.4,1.9-3.7c0.3-1,0.5-2.1,0.5-3.2c0,0,0.5,0.2,1,0.3c0.5,0.2,0.8,0.3,0.8,0.3s-0.1,1,0,2.2c0,1.2,0.1,3.5,0.2,5.2
	c0.1,1.4,0.5,2.8,1.1,4.1c1.1,2.2,2.5,4.2,4.2,5.9c1.1,1.1,2.3,2,3.7,2.7c1.4-0.7,2.7-1.6,3.7-2.7c1.7-1.7,3.1-3.7,4.2-5.9
	c0.6-1.3,1-2.7,1.1-4.1c0.2-1.7,0.2-4,0.2-5.2c0-1.2,0-2.2,0-2.2s0.3-0.1,0.8-0.3s1-0.3,1-0.3c0,1.1,0.2,2.2,0.5,3.2
	c0.4,1.4,1,2.6,1.9,3.7c1,1,2.1,2,3.3,2.8C54.4,38.4,52.8,40.9,51.7,42.3C51.7,42.3,51.7,42.3,51.7,42.3z"/>
<path class="st2" d="M42.5,34.7c0,0,0.1,0.5-0.1,0.7c-0.1,0-0.1,0.1-0.2,0.1c-0.1,0-0.1,0-0.2,0c-0.1,0-0.1,0-0.2-0.1
	c-0.1,0-0.1-0.1-0.1-0.1c-0.3,0.2-0.6,0.4-0.6,0.4v1c0.5-0.1,1-0.4,1.4-0.7c0.5-0.5,0.8-1.1,0.9-1.8C43,34.4,42.8,34.5,42.5,34.7
	C42.5,34.7,42.5,34.7,42.5,34.7z"/>
<path class="st3" d="M68.4,35.2v7.4h-1.9l-0.1-0.8c-0.2,0.3-0.5,0.6-0.8,0.7c-0.3,0.2-0.7,0.2-1.1,0.2c-0.4,0-0.8-0.1-1.2-0.3
	c-0.4-0.2-0.7-0.5-0.9-0.8c-0.5-0.8-0.6-1.6-0.6-3.7v-4.5c0-2.3,0.2-3.1,0.8-3.8c0.4-0.3,0.8-0.6,1.2-0.8c0.5-0.2,1-0.2,1.4-0.2
	c1.3,0,2.2,0.3,2.7,1c0.5,0.8,0.7,1.7,0.6,2.6v0.7h-2.1v-0.8c0-1-0.3-1.5-1.1-1.5c-0.9,0-1.1,0.5-1.1,3v3.8c0,2.5,0.2,3.1,1.1,3.1
	c0.2,0,0.4,0,0.5-0.1c0.2-0.1,0.3-0.2,0.4-0.4c0.2-0.5,0.2-1,0.2-1.5v-1.4h-1.1v-2C65.2,35.2,68.4,35.2,68.4,35.2z M76.1,42.7h-6.7
	c0-3.3,0.7-4.9,3.1-7.8c1-1.3,1.3-1.8,1.3-2.7c0-0.9-0.4-1.5-1-1.5c-0.2,0-0.3,0-0.5,0.1c-0.1,0.1-0.3,0.2-0.3,0.3
	c-0.2,0.4-0.3,0.8-0.2,1.3v1.3h-2.3v-0.9c-0.1-0.9,0.1-1.9,0.6-2.7c0.3-0.4,0.8-0.8,1.2-1c0.5-0.2,1-0.3,1.6-0.3
	c2.1,0,3.3,1.3,3.3,3.4c0,1.3-0.3,2.1-1.7,3.8c-1.8,2.3-2.3,3.1-2.6,4.6h4.2C76.1,40.6,76.1,42.7,76.1,42.7z M86.9,31.2h-4v3.5h3.7
	v2h-3.7v3.8h4.2v2.2h-6.5V29.1h6.3C86.9,29.1,86.9,31.2,86.9,31.2z M92.2,33.6v-0.8c0-1.3-0.3-1.9-1.1-1.9c-0.6,0-1,0.4-1,1.2
	c0,0.8,0.3,1.3,1.3,2.1l1.3,1.2c1.8,1.5,2.1,2.2,2.1,4c0,2.3-1.2,3.5-3.6,3.5c-2.4,0-3.5-1.2-3.5-3.7v-1.5h2.2v1.1
	c0,1.4,0.4,2.1,1.3,2.1c0.8,0,1.1-0.5,1.1-1.5c0-0.9-0.2-1.3-1.1-2l-1.3-1.1c-0.7-0.5-1.2-1.1-1.7-1.7c-0.4-0.7-0.6-1.5-0.6-2.2
	c0-2.3,1.1-3.4,3.3-3.4c0.4,0,0.9,0,1.3,0.2c0.4,0.1,0.8,0.4,1.1,0.7c0.6,0.6,0.8,1.4,0.8,2.7v1.1C94.4,33.6,92.2,33.6,92.2,33.6z
	 M98.1,42.7h-2.3V29.1h3.3c1.5,0,2.1,0.1,2.6,0.6c0.6,0.6,0.9,1.5,0.9,3.3c0,2.9-0.8,3.8-3,3.8h-1.4L98.1,42.7z M98.9,34.7
	c0.9,0,1.2-0.4,1.2-1.8c0.1-0.6-0.1-1.2-0.4-1.7c-0.2-0.1-0.4-0.2-0.9-0.2h-0.7v3.7C98.1,34.7,98.9,34.7,98.9,34.7z M110.2,38.5
	c0,2.1-0.2,2.8-0.8,3.5c-0.7,0.6-1.7,1-2.6,1s-1.9-0.3-2.6-1c-0.6-0.7-0.8-1.4-0.8-3.5v-5.2c0-2.1,0.2-2.8,0.8-3.5
	c0.7-0.6,1.7-1,2.6-1s1.9,0.3,2.6,1c0.6,0.7,0.8,1.4,0.8,3.5V38.5z M105.7,38.4c0,2,0.2,2.6,1.1,2.6c0.8,0,1.1-0.5,1.1-2.6v-5.1
	c0-2-0.2-2.6-1.1-2.6c-0.8,0-1.1,0.5-1.1,2.6V38.4z M113.8,42.7h-2.3V29.1h3.2c1.4,0,2.1,0.1,2.6,0.6c0.6,0.5,0.8,1.5,0.8,3.1
	c0,2-0.3,2.5-1.6,2.8c1.2,0.2,1.5,0.7,1.5,2.3v2c-0.1,1,0,1.9,0.2,2.8h-2.5c-0.1-0.6-0.1-1.1-0.1-1.7v-2.5c0-1.5-0.3-2-1.3-2h-0.5
	C113.8,36.5,113.8,42.7,113.8,42.7z M114.5,34.6c1.1,0,1.4-0.4,1.4-1.8c0-1.5-0.3-1.8-1.3-1.8h-0.7v3.6
	C113.8,34.6,114.5,34.6,114.5,34.6z M123.5,42.7h-2.3V31.2h-2.4v-2.1h7.1v2.1h-2.4C123.5,31.2,123.5,42.7,123.5,42.7z M130.7,33.6
	v-0.8c0-1.3-0.3-1.9-1.1-1.9c-0.6,0-1,0.4-1,1.2c0,0.8,0.3,1.3,1.3,2.1l1.3,1.2c1.8,1.5,2.1,2.2,2.1,4c0,2.3-1.2,3.5-3.6,3.5
	c-2.4,0-3.5-1.2-3.5-3.7v-1.5h2.2v1.1c0,1.4,0.4,2.1,1.3,2.1c0.8,0,1.1-0.5,1.1-1.5c0-0.9-0.2-1.3-1.1-2l-1.3-1.1
	c-0.7-0.5-1.2-1.1-1.7-1.7c-0.4-0.7-0.6-1.5-0.6-2.2c0-2.3,1.1-3.4,3.3-3.4c0.4,0,0.9,0,1.3,0.2c0.4,0.1,0.8,0.4,1.1,0.7
	c0.6,0.6,0.8,1.4,0.8,2.7v1.1C132.9,33.6,130.7,33.6,130.7,33.6z"/>
</svg>
