<?xml version="1.0" encoding="utf-8"?>
<!-- Generator: Adobe Illustrator 24.1.2, SVG Export Plug-In . SVG Version: 6.00 Build 0)  -->
<svg version="1.1" id="Warstwa_1" xmlns="http://www.w3.org/2000/svg" xmlns:xlink="http://www.w3.org/1999/xlink" x="0px" y="0px"
	 viewBox="0 0 50 50" style="enable-background:new 0 0 50 50;" xml:space="preserve"  fill="white">
<g>
	<path d="M39.9,50c-3,0-6,0-9,0c-0.9-0.3-1.2-1-1.2-1.9c0-3.7,0-7.4,0-11.2c0-1.7-1-2.7-2.7-2.7c-1.4,0-2.8,0-4.1,0
		c-1.8,0-2.8,1-2.8,2.8c0,3.7,0,7.4,0,11.1c0,0.9-0.3,1.5-1.2,1.9c-3,0-6,0-9,0c0,0-0.1-0.1-0.1-0.1c-2.3-0.3-4.6-2.5-4.6-5.6
		c0.1-4.7,0-9.4,0-14.1c0-0.2,0-0.4,0-0.5c-0.7-0.1-1.3-0.1-1.9-0.2c-3.5-0.9-4.6-5.2-1.9-7.8C8.2,14.9,14.9,8.2,21.6,1.5
		c0.3-0.3,0.6-0.6,0.9-0.8c1.9-1.2,4.2-0.9,5.9,0.8C34.9,8,41.3,14.4,47.8,20.9c1,1,2,2.1,2.2,3.6c0,0.4,0,0.8,0,1.2
		c0,0.1-0.1,0.1-0.1,0.2c-0.5,2.3-2.2,3.8-4.5,3.8c-0.2,0-0.5,0-0.7,0c0,0.3,0,0.5,0,0.7c0,4.8,0,9.7,0,14.5c0,2.3-1.6,4.3-3.8,5
		C40.6,49.9,40.2,49.9,39.9,50z"/>
</g>
</svg>
