<?xml version="1.0" encoding="utf-8"?>
<!-- Generator: Adobe Illustrator 24.1.2, SVG Export Plug-In . SVG Version: 6.00 Build 0)  -->
<svg version="1.1" xmlns="http://www.w3.org/2000/svg" xmlns:xlink="http://www.w3.org/1999/xlink" x="0px" y="0px"
	 viewBox="0 0 545 662.7" style="enable-background:new 0 0 545 662.7;" xml:space="preserve">
<style type="text/css">
	.st0{fill:none;stroke:#000000;stroke-width:0.375;}
	.st1{fill:#D7464F;}
	.st2{fill:url(#SVGID_1_);}
	.st3{fill:#A6283D;}
	.st4{fill:#DBAFB3;}
	.st5{fill:#FFFFFF;}
	.st6{fill:#56AF31;}
	.st7{fill:none;stroke:#FFFFFF;stroke-width:6;stroke-linecap:round;stroke-miterlimit:10;}
	.st8{fill:#E00914;}
	.st9{fill:none;stroke:#FFFFFF;stroke-width:3;stroke-linecap:round;stroke-linejoin:round;stroke-miterlimit:10;}
	.st10{fill:none;stroke:#FFFFFF;stroke-width:4;stroke-linecap:round;stroke-linejoin:round;stroke-miterlimit:10;}
	.st11{opacity:0.26;fill:none;stroke:#D7464F;stroke-width:2;stroke-linecap:round;stroke-miterlimit:10;}
	.st12{fill:none;stroke:#D7464F;stroke-width:4;stroke-linecap:round;stroke-miterlimit:10;}
	.st13{clip-path:url(#SVGID_3_);}
	.st14{fill:url(#SVGID_4_);}
	.st15{fill:url(#SVGID_5_);}
	.st16{fill:url(#SVGID_6_);}
	.st17{fill:url(#SVGID_7_);}
	.st18{clip-path:url(#SVGID_9_);}
	.st19{fill:url(#SVGID_10_);}
	.st20{fill:url(#SVGID_11_);}
	.st21{fill:url(#SVGID_12_);}
	.st22{fill:url(#SVGID_13_);}
	.st23{fill:url(#SVGID_14_);}
	.st24{display:none;opacity:0.71;fill:#FFFFFF;}
	.st25{fill:#1E1E1C;}
	.st26{fill:#020203;}
	.st27{clip-path:url(#SVGID_16_);fill:none;stroke:#FFFFFF;stroke-width:1.256;}
	.st28{clip-path:url(#SVGID_16_);fill:#FFFFFF;}
	.st29{clip-path:url(#SVGID_18_);fill:none;stroke:#FFFFFF;stroke-width:1.256;}
	.st30{clip-path:url(#SVGID_18_);fill:#FFFFFF;}
	.st31{clip-path:url(#SVGID_20_);}
	.st32{display:none;}
	.st33{display:inline;fill:#D7464F;}
	.st34{display:inline;fill:#FFFFFF;}
	.st35{display:inline;}
	.st36{fill:none;stroke:#FFFFFF;stroke-width:31;stroke-miterlimit:10;}
	.st37{fill:none;}
	.st38{display:none;fill:#D7464F;}
	.st39{font-family:'AlwaysForever-Bold';}
	.st40{font-size:375.3018px;}
	.st41{fill:#FFFFFF;stroke:#000000;stroke-miterlimit:10;}
	.st42{fill:#C7233B;}
	.st43{font-family:'Amaranth-BoldItalic';}
	.st44{font-size:120.0136px;}
	.st45{font-size:66.0702px;}
</style>
<g id="Warstwa_1">
</g>
<g id="Warstwa_5">
</g>
<g id="Warstwa_2">
</g>
<g id="Warstwa_3">
	<g class="st32">
		<text transform="matrix(1 0 0 1 -695.9803 753.0129)" class="st33 st39 st40">SushiQuest</text>
	</g>
	<g>
		<path class="st41" d="M155.4,191l-38.6,72.8c0,0,5.1,112.8,5.1,114.2S133,517.7,133,517.7l40.4,8.5l42.3,8.2l24.8-5.1l234.3-71.4
			l24.3-16l29-35.7l5.1-60.3V145.5l-31-47l-49.1-11.4L353.5,107L155.4,191z"/>
		<path id="final_8_" class="st42" d="M236,353.1v-45c0-26.2,21.2-53.9,47.3-61.8l58.9-17.8c2.4,8.5,14,54-7.8,86.2
			c-0.7,1-1.4,2.1-2.2,3.1C322.6,330.4,297.4,351.4,236,353.1z M378,278.4c5.7-2.9,11.9-5.4,18.5-7.3c15.3-4.2,35.6-5.5,56.5,5.6
			v-34.1c0-26.3-21.3-41.2-47.5-33.2L372,219.6C374.1,226.9,380.3,250.9,378,278.4z M322.6,393.4c-3.3-9.1-4.4-18.2-4.2-26.8
			c-22.2,10.6-50.1,16.6-82.4,17.4v25.9c0,26.2,21.2,41.1,47.3,33.3l61.3-18.4C334.3,416.1,327,405.6,322.6,393.4z M414.7,299.3
			c-26.4,2.1-50,26.4-53.1,31.5c0,0,0.6-0.9,1-2.5c-0.8,1.3-1.6,2.6-2.5,3.9c-0.7,1-1.5,2.1-2.2,3.1l0.1,0
			c-0.1,0.3-14.2,25.3-6.1,47.9c4.5,12.4,15.3,22.5,32,30l21.6-6.5c26.2-7.9,47.5-35.5,47.5-61.8v-29.6
			C441.3,303.4,428.7,298.2,414.7,299.3z M497,450.3c-5.4,5.1-19.1,11.2-27.1,15.1c-0.1,0.1-0.3,0.1-0.4,0.1l-234.4,67.9
			c-58.4,21.1-110.5-21.8-110.5-21.8l-46.4-34.5c0,0,0,0,0,0c-4.1-2.8-7.8-5.6-11.4-8.2c4.4-3.9,8.8-7.7,13.4-11.4
			c4.2-3.4,8.5-6.7,12.9-9.8c4.4-3.1,9-6,14-8.1c-5.2,1.5-10.2,3.9-15,6.5c-4.8,2.6-9.5,5.4-14.1,8.4c-5.4,3.5-10.7,7.1-16,10.8
			c-38.6-29.7-45.3-47-46-60.9c3.3-2.5,6.6-5,10-7.4c8.5-6,17.3-11.7,26.2-17.2c9-5.4,18.1-10.6,27.5-15.2c9.4-4.6,19-8.9,29.2-11.9
			c-10.4,1.9-20.6,5.1-30.6,8.7c-10,3.6-19.8,7.8-29.4,12.3c-9.7,4.5-19.2,9.3-28.5,14.5c-1.4,0.8-2.8,1.5-4.1,2.3
			c0-2.3,0-4.5-0.4-6.8c0-0.1,0-0.2,0-0.3v-79.2c0,0,0.1,0,0.1-0.1c1.8-1.1,3.8-2.2,5.7-3.3c4-2.1,8-4.2,12.1-6.2
			c8.2-4,16.6-7.9,25-11.6c8.4-3.7,16.9-7.3,25.5-10.5c4.3-1.6,8.6-3.2,13-4.6c2.2-0.7,4.4-1.3,6.6-1.9c2.2-0.5,4.5-1,6.8-1.2
			c-2.3-0.2-4.6,0-7,0.2c-2.3,0.2-4.6,0.6-6.9,1c-4.6,0.8-9.1,1.8-13.7,2.8c-9.1,2.1-18,4.5-27,7.1c-8.9,2.6-17.8,5.3-26.7,8.3
			c-4.4,1.5-8.9,3-13.3,4.7c-0.1,0-0.3,0.1-0.4,0.1v-78.7c1-0.6,1.9-1.2,2.9-1.8c2.6-1.6,5.3-3.1,8-4.6c5.4-3,10.9-5.8,16.5-8.5
			c11.2-5.3,22.7-10.1,34.5-14.1c11.8-4,23.9-7.2,36.2-9.3c6.2-1.1,12.4-1.7,18.6-2.2c6.3-0.4,12.6-0.4,18.9-0.1
			c-6.2-0.9-12.6-1.5-18.9-1.7c-6.3-0.2-12.7-0.1-19.1,0.4c-12.7,0.9-25.4,2.9-37.8,5.8c-12.5,2.9-24.8,6.5-36.8,10.9
			c-6,2.2-12,4.5-17.9,7c-1.8,0.7-3.5,1.5-5.3,2.3v-8c0-55,10-73,52.2-90.7c7.8,0.8,15.5,1.6,23.3,2.5c15.3,1.8,30.6,4,45.8,6.6
			c15.2,2.6,30.3,5.7,45.1,9.9c7.4,2.1,14.7,4.5,21.8,7.4c3.5,1.5,7,3.2,10.3,5.1c3.3,1.9,6.5,4.2,9.1,7c-2.4-3-5.4-5.6-8.6-7.8
			c-3.2-2.2-6.6-4.2-10-6c-6.9-3.6-14.2-6.6-21.5-9.3c-14.6-5.4-29.6-9.7-44.7-13.6c-15.1-3.9-30.3-7.3-45.6-10.4
			c-0.5-0.1-1-0.2-1.6-0.3c3.6-1.2,7.3-2.5,11.2-3.8l90.4-27.5c12.7,2.7,25.3,5.6,37.8,8.8c15.8,4.1,31.6,8.5,46.9,14.1
			c7.7,2.8,15.2,5.9,22.5,9.6c3.6,1.9,7.2,3.9,10.5,6.3c1.7,1.2,3.3,2.5,4.8,3.8c1.5,1.4,2.9,2.9,4.1,4.6c-1.1-1.8-2.4-3.4-3.8-4.9
			c-1.4-1.5-2.9-2.9-4.5-4.2c-3.2-2.6-6.6-5-10.1-7.2c-7.1-4.3-14.5-8-22-11.5c-15.1-6.8-30.6-12.6-46.2-17.9
			c-7.3-2.5-14.6-4.8-21.9-7.1l91-27.7c7.4,2.4,14.8,4.9,22.1,7.5c15.4,5.5,30.6,11.4,45.3,18.4c7.3,3.5,14.6,7.3,21.4,11.7
			c3.4,2.2,6.7,4.6,9.8,7.3c1.6,1.3,3,2.8,4.4,4.3c1.3,1.5,2.6,3.2,3.6,5c-0.9-1.9-2-3.6-3.2-5.3c-1.3-1.6-2.6-3.2-4.1-4.7
			c-2.9-2.9-6.1-5.6-9.4-8.1c-6.6-5-13.6-9.4-20.8-13.5c-14.3-8.2-29.2-15.3-44.3-22c-3.7-1.6-7.4-3.2-11.1-4.8
			c26.6-8.4,65.7-18.4,115.2,21l51.8,36.3c0.9,0.6,1.3,1.7,1,2.7l0.5-0.2c0.9-0.3,1.8-0.1,2.5,0.4c34.5,29.2,49.6,49.2,49.6,75.3
			l0,189.9C536.6,388.8,538.3,411.4,497,450.3z M528.1,164.3c0-56.5-51.5-63.4-77.8-55.4l-237.7,70.4c-43.1,12-70.6,40.9-70.6,83.2
			v209.7c0,52.8,57.4,63.6,77.9,57.4l238.9-69.8c56.1-16.3,69.3-68.1,69.3-94.4V164.3z"/>
		<g>
			<text transform="matrix(1 0 0 1 20.828 653.8879)" class="st42 st43 st44">YusoSushi</text>
		</g>
		<g>
			<text transform="matrix(0.6011 -0.9462 -0.8441 -0.5362 111.2039 585.1784)" class="st42 st43 st45">,</text>
		</g>
		<g>
			<text transform="matrix(-0.6011 -0.9462 0.8441 -0.5362 225.8472 585.1784)" class="st42 st43 st45">,</text>
		</g>
	</g>
</g>
<g id="Warstwa_4">
</g>
</svg>
