<?xml version="1.0" encoding="utf-8"?>
<!-- Generator: Adobe Illustrator 24.1.2, SVG Export Plug-In . SVG Version: 6.00 Build 0)  -->
<svg version="1.1" id="Warstwa_1" xmlns="http://www.w3.org/2000/svg" xmlns:xlink="http://www.w3.org/1999/xlink" x="0px" y="0px"
	 viewBox="0 0 50 50" style="enable-background:new 0 0 50 50;" xml:space="preserve"  fill="black">
<g>
	<path d="M17.5,48.7c-0.4-0.1-0.8-0.1-1.1-0.3c-2.6-1-5-2.4-7.2-4.2c-1.1-0.9-1.4-2.3-0.8-3.7c1-2.6,0.6-4.9-1.2-7
		c-1-1.1-2.3-1.8-3.8-2c-1.9-0.3-2.8-1.1-3.1-3c-0.4-2.7-0.3-5.5,0.2-8.2c0.3-1.4,1.3-2.3,2.8-2.5c4.3-0.6,6.8-4.7,5.4-8.8
		C8.1,7.5,8.5,6.2,9.8,5.2c2-1.5,4.1-2.7,6.4-3.6c1.4-0.5,2.7-0.2,3.7,0.9c2.8,3.3,7.4,3.3,10.2,0c1-1.2,2.3-1.5,3.7-0.9
		c2.5,1,4.8,2.3,6.9,4c1.2,1,1.6,2.2,1.1,3.7c-1.4,4,0.9,8,5.1,8.7c1.5,0.3,2.4,1.2,2.7,2.7c0.5,2.8,0.5,5.7,0,8.5
		c-0.3,1.4-1.3,2.3-2.7,2.5c-4.3,0.6-6.7,4.8-5.2,8.9c0.5,1.5,0.2,2.7-1,3.7c-1.9,1.6-4.1,2.9-6.4,3.8c-1.4,0.6-2.8,0.2-3.7-1
		c-2.9-3.6-7.8-3.5-10.5,0.1C19.4,48.2,18.6,48.6,17.5,48.7z M33.3,24.9c0-4.5-3.7-8.3-8.3-8.3c-4.6,0-8.4,3.7-8.4,8.3
		c0,4.6,3.7,8.3,8.3,8.4C29.6,33.3,33.3,29.6,33.3,24.9z"/>
</g>
</svg>
