<?xml version="1.0" encoding="utf-8"?>
<!-- Generator: Adobe Illustrator 24.1.2, SVG Export Plug-In . SVG Version: 6.00 Build 0)  -->
<svg version="1.1" id="Warstwa_1" xmlns="http://www.w3.org/2000/svg" xmlns:xlink="http://www.w3.org/1999/xlink" x="0px" y="0px"
	 viewBox="0 0 50 50" style="enable-background:new 0 0 50 50;" xml:space="preserve"  fill="black">
<g>
	<path d="M0,26.5c0-1,0-2,0-2.9c0-0.4,0.1-0.7,0.1-1.1c0.6-5.4,2.7-10.1,6.3-14.2c3.9-4.3,8.6-6.9,14.3-7.9c0.9-0.2,1.9-0.3,2.8-0.4
		c1,0,2,0,2.9,0c0.8,0.1,1.7,0.2,2.5,0.3c5.2,0.9,9.8,3.1,13.5,6.9c5.6,5.6,8.1,12.4,7.4,20.3c-0.5,5.3-2.6,10-6.1,14
		c-4.7,5.3-10.6,8.1-17.7,8.5c-4.9,0.2-9.6-0.9-13.8-3.5c-6.5-4-10.5-9.7-11.9-17.2C0.2,28.4,0.1,27.4,0,26.5z M21.2,29.2
		c-1-0.9-1.9-1.8-2.8-2.6c-1.4-1.3-2.7-2.6-4.2-3.8c-1.3-1.1-3.4-0.4-3.8,1.3c-0.3,1.1,0.1,1.9,0.9,2.7c2.7,2.4,5.4,4.9,8.1,7.3
		c1.3,1.2,2.6,1.2,3.9-0.1c5.1-5.1,10.3-10.2,15.4-15.3c0.2-0.2,0.3-0.3,0.5-0.5c1.1-1.4,0.5-3.5-1.2-4c-1.1-0.4-2,0-2.8,0.8
		c-4.6,4.6-9.1,9.1-13.7,13.7C21.4,28.9,21.3,29,21.2,29.2z"/>
</g>
</svg>
