<?xml version="1.0" encoding="utf-8"?>
<!-- Generator: Adobe Illustrator 24.1.2, SVG Export Plug-In . SVG Version: 6.00 Build 0)  -->
<svg version="1.1" id="Warstwa_1" xmlns="http://www.w3.org/2000/svg" xmlns:xlink="http://www.w3.org/1999/xlink" x="0px" y="0px"
	 viewBox="0 0 50 50" style="enable-background:new 0 0 50 50;" xml:space="preserve">
<g>
	<path d="M24.1,49.4c-0.3-0.1-0.6-0.1-1-0.2c-2.8-0.9-4.6-2.7-5.2-5.6c0-0.1-0.1-0.2-0.1-0.4c-0.2,0-0.4,0-0.6,0c-3,0-6,0-9,0
		c-2.2,0-4.2-1.4-5-3.5c-0.8-2.1-0.3-4.4,1.4-5.9c1-1,2.3-1.5,3.7-1.5c0.7,0,0.8-0.2,0.8-0.9c0-3.1-0.1-6.2,0-9.3
		c0.2-6.7,3.4-11.5,9.5-14.4c0.3-0.1,0.7-0.2,0.9-0.4c0.1-0.2,0-0.6,0-1c0-3,2.4-5.4,5.4-5.4c3,0,5.4,2.5,5.3,5.5c0,0.3,0,0.6-0.1,1
		c0.2,0.1,0.4,0.2,0.6,0.3c5.7,2.6,8.9,7,9.7,13.3c0.1,0.6,0.1,1.2,0.1,1.9c0,2.9,0,5.7,0,8.6c0,0.9,0.1,1,1,1.1
		c2.6,0.2,4.7,2,5.2,4.4c0.7,3.4-1.9,6.6-5.4,6.6c-3,0-6,0-8.9,0c-0.2,0-0.3,0-0.4,0c-0.4,0.9-0.6,1.9-1.1,2.7
		c-1.1,2-2.8,3.2-5.1,3.5c-0.1,0-0.2,0.1-0.3,0.1C25.2,49.4,24.7,49.4,24.1,49.4z M25,39.9c5.5,0,10.9,0,16.4,0
		c1.4,0,2.4-0.9,2.5-2.2c0.1-1.3-0.8-2.4-2.2-2.5c-0.3,0-0.7,0-1-0.1c-1.8-0.4-3-1.9-3-3.8c0-3,0-6,0-9c0-1.7-0.3-3.3-0.9-4.8
		C34,10.4,26,7.2,19.4,10.6c-4.4,2.3-6.8,6-6.9,11c-0.1,3.2,0,6.5,0,9.8c0,1.9-1.3,3.4-3,3.7c-0.4,0.1-0.8,0.1-1.2,0.1
		c-1.7,0.3-2.5,2.1-1.7,3.5c0.5,0.8,1.3,1.2,2.2,1.2C14.1,39.9,19.6,39.9,25,39.9z M21.2,43.1c0.1,1.6,1.9,3.1,3.7,3.1
		c1.9,0,3.7-1.4,3.8-3.1C26.3,43.1,23.7,43.1,21.2,43.1z M27.2,6.2c0.1-0.9-0.3-1.7-1.1-2.1c-0.8-0.5-1.8-0.4-2.5,0.2
		c-0.6,0.5-0.9,1.4-0.7,1.9C24.3,6.2,25.7,6.2,27.2,6.2z"/>
	<path d="M4.6,19.5c-1.1,0-1.8-0.9-1.5-2c0.3-1.2,0.7-2.3,1.1-3.4c1-2.7,2.6-5,4.6-7c0.6-0.6,1.3-0.7,2-0.3c0.6,0.4,0.9,1.1,0.7,1.7
		c-0.1,0.3-0.3,0.6-0.5,0.8c-2.5,2.5-4.1,5.5-4.9,8.9C6,19,5.4,19.5,4.6,19.5z"/>
	<path d="M46.9,17.9c0,0.9-0.6,1.5-1.3,1.6c-0.8,0.1-1.5-0.3-1.8-1.1c-0.3-1-0.5-1.9-0.9-2.9c-0.9-2.3-2.2-4.4-4-6.2
		c-0.4-0.4-0.7-0.9-0.6-1.4c0.1-0.6,0.4-1.1,1-1.3C40,6.4,40.6,6.5,41.1,7c1.7,1.7,3,3.6,4.1,5.7c0.8,1.5,1.3,3.1,1.7,4.8
		C46.9,17.6,46.9,17.8,46.9,17.9z"/>
</g>
</svg>
