<?xml version="1.0" encoding="utf-8"?>
<!-- Generator: Adobe Illustrator 24.1.2, SVG Export Plug-In . SVG Version: 6.00 Build 0)  -->
<svg version="1.1" id="Warstwa_1" xmlns="http://www.w3.org/2000/svg" xmlns:xlink="http://www.w3.org/1999/xlink" x="0px" y="0px"
	 viewBox="0 0 50 50" style="enable-background:new 0 0 50 50;" xml:space="preserve"  fill="white">
<g>
	<path d="M0,26.4c0.3-0.7,0.4-1.5,0.8-2.2c1.1-2,2.8-3.2,5.1-3.3c1.8-0.1,3.5-0.1,5.3,0.1c1.6,0.1,2.9,0.9,3.9,2.1
		c-4.4,3-6.7,7.1-6.9,12.4c-0.5,0-1.1,0-1.6,0c-1,0-2,0-2.9,0c-1.9-0.2-3.3-1.4-3.7-3.3C0.1,32,0,31.9,0,31.8C0,30,0,28.2,0,26.4z"
		/>
	<path d="M25,43.7c-2,0-4.1,0-6.1,0c-3.6,0-6.4-2.8-6.4-6.4c0-1.6-0.1-3.2,0.4-4.8c1.2-4.4,5.3-7.5,9.8-7.5c1.9,0,3.8-0.1,5.7,0.1
		c4.6,0.4,8.5,4.4,9,9c0.2,1.6,0.3,3.3-0.1,4.9c-0.6,2.8-3.1,4.8-6,4.8C29.2,43.8,27.1,43.7,25,43.7C25,43.7,25,43.7,25,43.7z"/>
	<path d="M33.3,14.6c0,4.6-3.8,8.3-8.3,8.3c-4.6,0-8.3-3.8-8.3-8.4c0-4.6,3.8-8.3,8.4-8.3C29.6,6.3,33.3,10,33.3,14.6z"/>
	<path d="M34.8,23c1.2-1.4,2.6-2.1,4.4-2.2c1.7-0.1,3.5-0.1,5.2,0c3.1,0.2,5.5,2.9,5.6,6c0,1.4,0,2.8,0,4.2c0,2.3-1.6,4.1-3.9,4.2
		c-1.5,0.1-2.9,0-4.4,0C41.5,30.1,39.2,26,34.8,23z"/>
	<path d="M14.6,12.5c0,3.5-2.8,6.2-6.3,6.2c-3.4,0-6.2-2.8-6.2-6.3c0-3.5,2.8-6.3,6.3-6.2C11.8,6.3,14.6,9.1,14.6,12.5z"/>
	<path d="M35.4,12.5c0-3.5,2.8-6.2,6.2-6.2c3.4,0,6.2,2.8,6.2,6.2c0,3.4-2.8,6.3-6.3,6.3C38.2,18.7,35.4,15.9,35.4,12.5z"/>
</g>
</svg>
