<?xml version="1.0" encoding="utf-8"?>
<!-- Generator: Adobe Illustrator 24.1.2, SVG Export Plug-In . SVG Version: 6.00 Build 0)  -->
<svg version="1.1" id="Warstwa_1" xmlns="http://www.w3.org/2000/svg" xmlns:xlink="http://www.w3.org/1999/xlink" x="0px" y="0px"
	 viewBox="0 0 150 150" style="enable-background:new 0 0 150 150;" xml:space="preserve"  fill="white">
<g>
	<path d="M150,9.4c0,22.9,0,45.9,0,68.8c-0.1,0.1-0.1,0.2-0.2,0.2c-1.8,6.3-5.5,9.1-12.1,9.1c-14.8,0-29.7,0-44.5,0
		c-1.3,0-2.6-0.1-3.8-0.4c-5.2-1.3-8.3-5.6-8.3-11.3c0-21.3,0-42.7,0-64c0-0.4,0-0.9,0-1.3c0.4-5.9,4.9-10.4,10.6-10.4
		c15.8-0.1,31.6-0.1,47.4,0c4.6,0,8.7,3.1,10.1,7.6C149.6,8.2,149.8,8.8,150,9.4z"/>
	<path d="M59.5,150c-16.7,0-33.4,0-50.1,0c-6.7-1.5-9.5-6.6-9.4-13.2C0.2,116,0.1,95.2,0.1,74.3c0-7.2,4.6-11.8,11.8-11.8
		c15.1,0,30.2,0,45.2,0c7.1,0,11.7,4.6,11.7,11.7c0,6.1,0,12.2,0,18.3c0,15.3,0,30.6,0,45.8c0,4.8-2,8.4-6.3,10.5
		C61.6,149.4,60.5,149.6,59.5,150z"/>
	<path d="M90.6,150c-1-0.4-2.1-0.7-3.1-1.2c-4-2-6.1-5.3-6.1-9.7c-0.1-9.4-0.1-18.8,0-28.3c0.1-6.3,4.9-10.8,11.3-10.8
		c11.2-0.1,22.4,0,33.7,0c4,0,8,0,12,0c6.1,0,10,3,11.6,8.9c0,0.1,0.1,0.3,0.2,0.4c0,10.4,0,20.9,0,31.3c-0.8,1.7-1.3,3.5-2.3,5.1
		c-1.6,2.5-4.2,3.6-7,4.3C123.9,150,107.2,150,90.6,150z"/>
	<path d="M34.5,0c7.6,0,15.1,0,22.7,0c6.9,0,11.6,4.6,11.6,11.5c0,9,0,18,0,26.9c0,6.8-4.7,11.5-11.5,11.5c-15.3,0-30.5,0-45.8,0
		C4.7,50,0.1,45.3,0.1,38.5c0-9,0-18,0-26.9C0.1,4.7,4.7,0,11.6,0C19.2,0,26.9,0,34.5,0z"/>
</g>
</svg>
