<?xml version="1.0" encoding="utf-8"?>
<!-- Generator: Adobe Illustrator 24.1.2, SVG Export Plug-In . SVG Version: 6.00 Build 0)  -->
<svg version="1.1" id="Warstwa_1" xmlns="http://www.w3.org/2000/svg" xmlns:xlink="http://www.w3.org/1999/xlink" x="0px" y="0px"
	 viewBox="0 0 50 50" style="enable-background:new 0 0 50 50;" xml:space="preserve"  fill="white">
<g>
	<path d="M23.4,0c1,0,2.1,0,3.1,0c0.2,0,0.3,0.1,0.5,0.1c0.9,0.1,1.7,0.2,2.6,0.3C35.9,1.7,41,4.8,44.9,9.9
		c4.3,5.7,5.9,12.1,4.8,19.2c-0.9,5.6-3.5,10.4-7.7,14.2c-5.8,5.3-12.6,7.4-20.4,6.5c-5-0.6-9.4-2.7-13.1-6
		c-4.3-3.9-7.1-8.7-8.1-14.4c-0.2-0.9-0.3-1.9-0.4-2.8c0-1,0-2.1,0-3.1c0.1-0.6,0.1-1.2,0.2-1.8C1,16.2,3.3,11.4,7.2,7.5
		c3.7-3.8,8.3-6.2,13.5-7.1C21.6,0.2,22.5,0.1,23.4,0z M26.8,17.3c0-2.1,0-4.2,0-6.3c0-0.3,0-0.5-0.1-0.8c-0.2-0.8-1.1-1.3-1.9-1.2
		c-0.9,0.1-1.5,0.8-1.5,1.8c0,4.7,0,9.5,0,14.2c0,0.6,0.3,1.1,0.8,1.5c2.9,2.3,5.8,4.7,8.7,7c0.3,0.2,0.6,0.4,0.9,0.4
		c0.8,0.2,1.6-0.3,1.9-1c0.3-0.8,0.2-1.6-0.5-2.1c-2.6-2.1-5.3-4.2-7.9-6.3c-0.3-0.2-0.4-0.4-0.4-0.7C26.8,21.5,26.8,19.4,26.8,17.3
		z"/>
</g>
</svg>
