<?xml version="1.0" encoding="utf-8"?>
<!-- Generator: Adobe Illustrator 24.1.2, SVG Export Plug-In . SVG Version: 6.00 Build 0)  -->
<svg version="1.1" id="Warstwa_1" xmlns="http://www.w3.org/2000/svg" xmlns:xlink="http://www.w3.org/1999/xlink" x="0px" y="0px"
	 viewBox="0 0 150 150" style="enable-background:new 0 0 150 150;" xml:space="preserve">
<g>
	<path d="M-354-39.6c0-0.9,0-1.8,0-2.6c0.1-0.6,0.2-1.3,0.3-1.9c1.8-10.8,12.7-17.9,23.3-15.3c12.5,3.1,18.4,17.3,11.8,28.4
		c-5.2,8.7-16.5,11.8-25.4,6.9c-0.5-0.2-0.8-0.3-1.3-0.1c-2.8,0.8-5.5,1.5-8.3,2.3c-0.1,0-0.2,0-0.3,0.1c0.8-2.9,1.6-5.8,2.4-8.7
		c0.1-0.4,0.1-0.7-0.1-1c-0.9-1.6-1.5-3.3-1.9-5C-353.7-37.7-353.8-38.6-354-39.6z M-333.4-36.5c0-0.6,0-1.2,0-1.8
		c0-0.2,0.1-0.5,0.3-0.7c0.8-0.8,1.6-1.4,2.4-2.2c2.4-2.3,2.3-6.2-0.2-8.4c-2.5-2.3-6.3-2.1-8.4,0.5c-0.9,1.1-1.4,2.3-1.4,3.8
		c0.2,0,0.3,0,0.5,0c0.8,0,1.6,0,2.4,0c0-0.2,0.1-0.3,0.1-0.5c0.2-1.3,1.4-2.4,2.7-2.5c1.2,0,2.3,0.6,2.8,1.7
		c0.5,1.1,0.3,2.4-0.6,3.2c-0.9,0.9-1.8,1.7-2.8,2.5c-0.6,0.5-0.8,1-0.8,1.8c0.1,0.8,0,1.6,0,2.5C-335.3-36.5-334.4-36.5-333.4-36.5
		z M-333.5-30.6c0-1,0-1.9,0-2.9c-1,0-1.9,0-2.9,0c0,1,0,1.9,0,2.9C-335.4-30.6-334.4-30.6-333.5-30.6z"/>
	<path d="M-321.4-10c-1-0.2-2.1-0.3-3.1-0.6c-4.4-1.2-7.7-3.9-9.9-7.9c-0.1-0.1-0.1-0.2-0.2-0.4c5.9-0.2,11-2.3,15.2-6.5
		c4.2-4.2,6.3-9.3,6.5-15.2c0.2,0.1,0.4,0.2,0.5,0.3c5.7,3.4,8.5,8.4,8.3,15c-0.1,2.5-0.8,4.8-2,7c-0.2,0.3-0.2,0.5-0.1,0.8
		c0.7,2.4,1.4,4.9,2.1,7.4c-0.2-0.1-0.4-0.1-0.6-0.1c-2.3-0.6-4.5-1.2-6.8-1.9c-0.3-0.1-0.6-0.1-1,0.1c-1.9,1.1-4,1.7-6.2,1.9
		c-0.1,0-0.3,0.1-0.4,0.1C-319.7-10-320.6-10-321.4-10z"/>
</g>
<g>
	<path d="M-44.5,48.7c-0.4-0.1-0.8-0.1-1.1-0.3c-2.6-1-5-2.4-7.2-4.2c-1.1-0.9-1.4-2.3-0.8-3.7c1-2.6,0.6-4.9-1.2-7
		c-1-1.1-2.3-1.8-3.8-2c-1.9-0.3-2.8-1.1-3.1-3c-0.4-2.7-0.3-5.5,0.2-8.2c0.3-1.4,1.3-2.3,2.8-2.5c4.3-0.6,6.8-4.7,5.4-8.8
		c-0.6-1.6-0.2-2.8,1.1-3.9c2-1.5,4.1-2.7,6.4-3.6c1.4-0.5,2.7-0.2,3.7,0.9c2.8,3.3,7.4,3.3,10.2,0c1-1.2,2.3-1.5,3.7-0.9
		c2.5,1,4.8,2.3,6.9,4c1.2,1,1.6,2.2,1.1,3.7c-1.4,4,0.9,8,5.1,8.7c1.5,0.3,2.4,1.2,2.7,2.7c0.5,2.8,0.5,5.7,0,8.5
		c-0.3,1.4-1.3,2.3-2.7,2.5c-4.3,0.6-6.7,4.8-5.2,8.9c0.5,1.5,0.2,2.7-1,3.7c-1.9,1.6-4.1,2.9-6.4,3.8c-1.4,0.6-2.8,0.2-3.7-1
		c-2.9-3.6-7.8-3.5-10.5,0.1C-42.6,48.2-43.4,48.6-44.5,48.7z M-28.7,24.9c0-4.5-3.7-8.3-8.3-8.3c-4.6,0-8.4,3.7-8.4,8.3
		c0,4.6,3.7,8.3,8.3,8.4C-32.4,33.3-28.7,29.6-28.7,24.9z"/>
</g>
<g>
	<path d="M-111.9,40.7c-1.8-0.4-3.4-1.1-4.9-2.3c-2.8-2.3-4.2-5.2-4.2-8.8c0-6.1,0-12.1,0-18.2c0-5.8,4.1-10.4,9.8-11.2
		c0.6-0.1,1.2-0.1,1.8-0.1c8.9,0,17.8,0,26.8,0c5.6,0,10.2,3.7,11.4,9.1c0.2,0.8,0.2,1.6,0.2,2.4c0,6,0,12,0,17.9
		c0,5.6-3.8,10.2-9.3,11.3c-0.8,0.2-1.6,0.2-2.4,0.2c-4,0-8,0-12,0c-0.3,0-0.7,0.1-1,0.3c-4.2,2.7-8.3,5.5-12.4,8.3
		c-1.4,1-3.2,0.4-3.6-1.2c-0.1-0.3-0.1-0.6-0.1-0.9c0-2,0-4.1,0-6.1C-111.9,41.1-111.9,40.9-111.9,40.7z M-96,18.2
		c3.3,0,6.6,0,9.9,0c1.3,0,2.5,0,3.8,0c1.1,0,2-0.9,2.2-1.9c0.2-1.1-0.5-2.2-1.5-2.5c-0.4-0.1-0.8-0.1-1.2-0.1c-8.8,0-17.6,0-26.4,0
		c-0.2,0-0.4,0-0.5,0c-1,0.1-1.7,0.6-2,1.5c-0.6,1.5,0.5,3,2.2,3C-105,18.2-100.5,18.2-96,18.2z M-96,27.3c2.6,0,5.2,0,7.8,0
		c0.5,0,1,0,1.4,0c1.5-0.1,2.5-1.5,2.1-2.9c-0.3-1-1.2-1.6-2.4-1.6c-5.9,0-11.8,0-17.7,0c-0.1,0-0.3,0-0.4,0c-1,0.1-1.8,0.8-2,1.8
		c-0.3,1.5,0.7,2.7,2.3,2.8C-102,27.3-99,27.3-96,27.3z"/>
</g>
<g>
	<path d="M-155.3,0c0.2,0,0.5,0,0.7,0c0.3,0.2,0.6,0.4,0.8,0.7c0.6,0.5,1.1,1.2,1.7,1.7c2.3,1.8,5,2.8,7.7,3.6
		c3.4,1,6.9,1.5,10.4,1.5c1.1,0,1.5,0.5,1.5,1.5c0,5.4,0,10.8,0,16.2c0,4.9-1.5,9.3-4.4,13.1c-4.5,6-10.7,9.5-17.7,11.6
		c-0.2,0.1-0.5,0.1-0.8,0c-5.9-1.7-11.1-4.6-15.4-9c-4.4-4.5-6.7-9.9-6.7-16.3c0-5.2,0-10.5,0-15.7c0-1,0.4-1.4,1.4-1.5
		c1.6-0.1,3.2-0.2,4.7-0.4c3.5-0.4,6.9-1.3,10.1-2.7c1.9-0.9,3.6-2,5-3.6C-156,0.5-155.7,0.3-155.3,0z M-150,22.5c0-0.9,0-1.7,0-2.5
		c-0.1-2.6-2-4.7-4.4-4.9c-2.6-0.3-4.9,1.3-5.4,3.9c-0.2,0.8-0.1,1.7-0.1,2.5c0,0.3,0,0.7,0,1c-0.4,0-0.8,0-1.1,0
		c-0.8,0-1.3,0.5-1.3,1.3c0,3.3,0,6.5,0,9.8c0,0.9,0.5,1.3,1.3,1.3c4.1,0,8.2,0,12.4,0c0.8,0,1.3-0.5,1.3-1.3c0-3.3,0-6.6,0-9.9
		c0-0.8-0.5-1.3-1.4-1.3C-149.2,22.5-149.6,22.5-150,22.5z"/>
	<path d="M-150,32.5c-3.3,0-6.6,0-10,0c0-2.5,0-4.9,0-7.4c3.3,0,6.6,0,10,0C-150,27.5-150,30-150,32.5z"/>
	<path d="M-157.5,22.5c0-0.9-0.1-1.9,0-2.8c0.1-1.3,1.3-2.2,2.5-2.2c1.3,0,2.4,1.1,2.4,2.4c0,0.9,0,1.7,0,2.6
		C-154.2,22.5-155.8,22.5-157.5,22.5z"/>
</g>
<g>
	<path d="M-257.3,50c-0.9-0.3-1.7-0.4-2.5-0.8c-3.8-1.7-5.6-5.9-4.4-9.9c0.1-0.4,0.1-0.6-0.3-0.8c-4.2-2.6-8.4-5.2-12.6-7.8
		c-0.3-0.2-0.5-0.2-0.8,0.1c-2.4,2.2-5.1,2.9-8.2,1.9c-3.1-1-4.9-3.2-5.6-6.4c-0.7-3.4,1.1-7,4.2-8.6c3.1-1.7,7-1.2,9.6,1.3
		c0.3,0.3,0.5,0.3,0.8,0.1c4.2-2.6,8.4-5.2,12.6-7.8c0.3-0.2,0.4-0.4,0.3-0.7c-1.8-5.5,2.5-11,8.3-10.7c4.2,0.2,7.4,3.6,7.7,7.9
		c0.2,3.9-2.7,7.7-6.7,8.3c-2.8,0.5-5.2-0.3-7.3-2.2c-0.1-0.1-0.2-0.2-0.3-0.3c-4.5,2.8-9,5.5-13.5,8.3c0.7,2,0.7,4,0,5.9
		c4.5,2.8,9,5.5,13.4,8.3c0.3-0.2,0.5-0.5,0.8-0.7c2.7-2.2,6.4-2.5,9.4-0.8c3,1.8,4.5,5.3,3.8,8.7c-0.7,3.3-3.4,5.9-6.8,6.4
		c-0.1,0-0.2,0.1-0.3,0.1C-256.1,50-256.7,50-257.3,50z M-256.4,47c2.9,0,5.2-2.3,5.2-5.2c0-2.8-2.4-5.2-5.2-5.2
		c-2.9,0-5.2,2.4-5.2,5.2C-261.6,44.7-259.3,47-256.4,47z M-261.6,8.2c0,2.9,2.3,5.2,5.2,5.2c2.9,0,5.2-2.3,5.2-5.2
		c0-2.9-2.3-5.2-5.2-5.2C-259.3,3-261.6,5.3-261.6,8.2z M-288.8,25c0,2.9,2.3,5.2,5.2,5.2c2.9,0,5.2-2.3,5.2-5.2
		c0-2.9-2.3-5.2-5.2-5.2C-286.5,19.8-288.8,22.1-288.8,25z"/>
</g>
<g>
	<path d="M-237,24.2c2.1-3.4,5-6.1,8.5-8.2c5.7-3.5,12-4.9,18.7-4.5c6.1,0.4,11.7,2.3,16.6,6c2.3,1.7,4.2,3.7,5.8,6
		c0.5,0.8,0.6,1.3,0,2.1c-3.7,5.2-8.7,8.7-14.7,10.6c-9.6,2.9-18.8,1.8-27.3-3.6c-2.8-1.8-5.2-4.2-7.1-6.9c-0.2-0.2-0.3-0.5-0.4-0.7
		C-237,24.7-237,24.5-237,24.2z M-212.8,34.8c3.6,0,6.3-0.4,9-1.2c5.2-1.6,9.7-4.3,13.2-8.7c0.2-0.3,0.3-0.5,0-0.8
		c-2-2.6-4.5-4.7-7.4-6.2c-8.1-4.3-16.5-4.8-25-1.5c-4.2,1.6-7.7,4.2-10.5,7.7c-0.2,0.3-0.3,0.5,0,0.8c1.1,1.2,2.1,2.4,3.4,3.5
		C-224.9,32.8-218.8,34.7-212.8,34.8z"/>
	<path d="M-212,32.4c-4.4,0-7.8-3.5-7.8-7.9c0-4.3,3.5-7.8,7.8-7.8c4.3,0,7.8,3.5,7.8,7.8C-204.2,28.9-207.7,32.4-212,32.4z
		 M-212,19.7c-2.7,0-4.9,2.2-4.9,4.9c0,2.7,2.2,4.9,4.8,4.9c2.7,0,4.9-2.2,4.9-4.9C-207.1,21.9-209.3,19.7-212,19.7z"/>
</g>
<g>
	<path d="M-336.3,0c1.1,0.2,2.2,0.3,3.2,0.6c6.6,2,10.7,6.4,11.9,13.2c0.9,4.6-0.3,8.9-3.1,12.7c-0.1,0.1-0.1,0.2-0.1,0.2
		c0.7,0.7,1.4,1.4,2.1,2.1c1.3-0.6,1.9-0.5,3,0.5c4.8,4.8,9.7,9.7,14.5,14.5c1.1,1.1,1.1,2.2,0,3.3c-0.7,0.7-1.5,1.5-2.2,2.2
		c-0.9,0.9-2,0.9-3,0c-5-5-9.9-9.9-14.9-14.9c-0.8-0.8-0.9-1.6-0.3-2.7c-0.7-0.7-1.4-1.4-2.1-2.1c0,0-0.2,0.1-0.3,0.2
		c-9.8,7.3-24,1.7-26.1-10.3c-0.1-0.6-0.2-1.1-0.3-1.7c0-0.8,0-1.6,0-2.4c0-0.2,0.1-0.3,0.1-0.5c0.6-6.7,5.6-12.6,12.1-14.3
		c1.1-0.3,2.2-0.4,3.2-0.6C-337.8,0-337.1,0-336.3,0z M-324.9,16.6c0.1-6.8-5.5-12.6-12.4-12.7c-7-0.1-12.8,5.5-12.8,12.4
		c-0.1,7,5.5,12.7,12.5,12.8C-330.6,29.2-324.9,23.6-324.9,16.6z"/>
</g>
<g>
	<path d="M-22.1-10c-3,0-6,0-9,0c-0.9-0.3-1.2-1-1.2-1.9c0-3.7,0-7.4,0-11.2c0-1.7-1-2.7-2.7-2.7c-1.4,0-2.8,0-4.1,0
		c-1.8,0-2.8,1-2.8,2.8c0,3.7,0,7.4,0,11.1c0,0.9-0.3,1.5-1.2,1.9c-3,0-6,0-9,0c0,0-0.1-0.1-0.1-0.1c-2.3-0.3-4.6-2.5-4.6-5.6
		c0.1-4.7,0-9.4,0-14.1c0-0.2,0-0.4,0-0.5c-0.7-0.1-1.3-0.1-1.9-0.2c-3.5-0.9-4.6-5.2-1.9-7.8c6.7-6.7,13.4-13.4,20.2-20.2
		c0.3-0.3,0.6-0.6,0.9-0.8c1.9-1.2,4.2-0.9,5.9,0.8c6.4,6.4,12.9,12.9,19.3,19.3c1,1,2,2.1,2.2,3.6c0,0.4,0,0.8,0,1.2
		c0,0.1-0.1,0.1-0.1,0.2c-0.5,2.3-2.2,3.8-4.5,3.8c-0.2,0-0.5,0-0.7,0c0,0.3,0,0.5,0,0.7c0,4.8,0,9.7,0,14.5c0,2.3-1.6,4.3-3.8,5
		C-21.4-10.1-21.8-10.1-22.1-10z"/>
</g>
<g>
	<path d="M-94.5-10c-1,0-2,0-2.9,0c-0.1,0-0.2-0.1-0.4-0.1c-3.1-0.2-6-0.9-8.8-2.3c-7.7-3.8-12.4-9.9-14-18.3
		c-0.2-1-0.3-1.9-0.4-2.9c0-1,0-2,0-2.9c0-0.1,0.1-0.3,0.1-0.4c0.2-3.1,0.9-6,2.3-8.7C-114.2-54.5-107-59.3-97-60
		c4.9-0.3,9.6,0.9,13.8,3.5C-75.7-51.8-71.6-45-71-36.1c0.3,4.5-0.7,8.8-2.9,12.8c-3.9,7-9.8,11.3-17.7,12.8
		C-92.6-10.2-93.6-10.1-94.5-10z M-96-31.9C-96-31.9-96-31.9-96-31.9c-1.6-0.1-3.2-0.1-4.7-0.1c-4.2,0-7.6,2.8-8.3,6.8
		c-0.2,1.2-0.4,2.4,0.4,3.4c0.6,0.7,1.3,1.4,2.1,1.9c3.9,2.7,8.3,3.8,13.1,3.1c3.5-0.5,6.7-1.9,9.4-4.2c0.9-0.7,1.3-1.7,1.3-2.8
		c0-4.1-3.2-7.8-7.3-8.1C-92.1-32-94-31.9-96-31.9z M-104.3-44.2c0,4.6,3.7,8.3,8.3,8.3c4.6,0,8.3-3.8,8.3-8.3
		c-0.1-4.6-3.8-8.2-8.3-8.2C-100.6-52.5-104.3-48.8-104.3-44.2z"/>
</g>
<g>
	<path d="M23.4-60c1,0,2.1,0,3.1,0c0.2,0,0.3,0.1,0.5,0.1c0.9,0.1,1.7,0.2,2.6,0.3c6.3,1.2,11.4,4.4,15.2,9.4
		c4.3,5.7,5.9,12.1,4.8,19.2c-0.9,5.6-3.5,10.4-7.7,14.2c-5.8,5.3-12.6,7.4-20.4,6.5c-5-0.6-9.4-2.7-13.1-6
		c-4.3-3.9-7.1-8.7-8.1-14.4c-0.2-0.9-0.3-1.9-0.4-2.8c0-1,0-2.1,0-3.1c0.1-0.6,0.1-1.2,0.2-1.8C1-43.8,3.3-48.6,7.2-52.5
		c3.7-3.8,8.3-6.2,13.5-7.1C21.6-59.8,22.5-59.9,23.4-60z M26.8-42.7c0-2.1,0-4.2,0-6.3c0-0.3,0-0.5-0.1-0.8
		c-0.2-0.8-1.1-1.3-1.9-1.2c-0.9,0.1-1.5,0.8-1.5,1.8c0,4.7,0,9.5,0,14.2c0,0.6,0.3,1.1,0.8,1.5c2.9,2.3,5.8,4.7,8.7,7
		c0.3,0.2,0.6,0.4,0.9,0.4c0.8,0.2,1.6-0.3,1.9-1c0.3-0.8,0.2-1.6-0.5-2.1c-2.6-2.1-5.3-4.2-7.9-6.3c-0.3-0.2-0.4-0.4-0.4-0.7
		C26.8-38.5,26.8-40.6,26.8-42.7z"/>
</g>
<g>
	<path d="M150,9.4c0,22.9,0,45.9,0,68.8c-0.1,0.1-0.1,0.2-0.2,0.2c-1.8,6.3-5.5,9.1-12.1,9.1c-14.8,0-29.7,0-44.5,0
		c-1.3,0-2.6-0.1-3.8-0.4c-5.2-1.3-8.3-5.6-8.3-11.3c0-21.3,0-42.7,0-64c0-0.4,0-0.9,0-1.3c0.4-5.9,4.9-10.4,10.6-10.4
		c15.8-0.1,31.6-0.1,47.4,0c4.6,0,8.7,3.1,10.1,7.6C149.6,8.2,149.8,8.8,150,9.4z"/>
	<path d="M59.5,150c-16.7,0-33.4,0-50.1,0c-6.7-1.5-9.5-6.6-9.4-13.2C0.2,116,0.1,95.2,0.1,74.3c0-7.2,4.6-11.8,11.8-11.8
		c15.1,0,30.2,0,45.2,0c7.1,0,11.7,4.6,11.7,11.7c0,6.1,0,12.2,0,18.3c0,15.3,0,30.6,0,45.8c0,4.8-2,8.4-6.3,10.5
		C61.6,149.4,60.5,149.6,59.5,150z"/>
	<path d="M90.6,150c-1-0.4-2.1-0.7-3.1-1.2c-4-2-6.1-5.3-6.1-9.7c-0.1-9.4-0.1-18.8,0-28.3c0.1-6.3,4.9-10.8,11.3-10.8
		c11.2-0.1,22.4,0,33.7,0c4,0,8,0,12,0c6.1,0,10,3,11.6,8.9c0,0.1,0.1,0.3,0.2,0.4c0,10.4,0,20.9,0,31.3c-0.8,1.7-1.3,3.5-2.3,5.1
		c-1.6,2.5-4.2,3.6-7,4.3C123.9,150,107.2,150,90.6,150z"/>
	<path d="M34.5,0c7.6,0,15.1,0,22.7,0c6.9,0,11.6,4.6,11.6,11.5c0,9,0,18,0,26.9c0,6.8-4.7,11.5-11.5,11.5c-15.3,0-30.5,0-45.8,0
		C4.7,50,0.1,45.3,0.1,38.5c0-9,0-18,0-26.9C0.1,4.7,4.7,0,11.6,0C19.2,0,26.9,0,34.5,0z"/>
</g>
<g>
	<path d="M-180-33.5c0-1,0-2,0-2.9c0-0.4,0.1-0.7,0.1-1.1c0.6-5.4,2.7-10.1,6.3-14.2c3.9-4.3,8.6-6.9,14.3-7.9
		c0.9-0.2,1.9-0.3,2.8-0.4c1,0,2,0,2.9,0c0.8,0.1,1.7,0.2,2.5,0.3c5.2,0.9,9.8,3.1,13.5,6.9c5.6,5.6,8.1,12.4,7.4,20.3
		c-0.5,5.3-2.6,10-6.1,14c-4.7,5.3-10.6,8.1-17.7,8.5c-4.9,0.2-9.6-0.9-13.8-3.5c-6.5-4-10.5-9.7-11.9-17.2
		C-179.8-31.6-179.9-32.6-180-33.5z M-158.8-30.8c-1-0.9-1.9-1.8-2.8-2.6c-1.4-1.3-2.7-2.6-4.2-3.8c-1.3-1.1-3.4-0.4-3.8,1.3
		c-0.3,1.1,0.1,1.9,0.9,2.7c2.7,2.4,5.4,4.9,8.1,7.3c1.3,1.2,2.6,1.2,3.9-0.1c5.1-5.1,10.3-10.2,15.4-15.3c0.2-0.2,0.3-0.3,0.5-0.5
		c1.1-1.4,0.5-3.5-1.2-4c-1.1-0.4-2,0-2.8,0.8c-4.6,4.6-9.1,9.1-13.7,13.7C-158.6-31.1-158.7-31-158.8-30.8z"/>
</g>
<g>
	<path d="M-187-39.5c-0.3,0.9-0.9,1.5-1.5,2.1c-3.3,2.9-6.6,5.8-9.9,8.6c-0.3,0.3-0.4,0.5-0.3,0.9c1,4.5,2,9,3.1,13.4
		c0.3,1.2,0,2.2-1,2.9c-1,0.7-2.1,0.7-3.1,0.1c-3.9-2.4-7.9-4.7-11.8-7.1c-0.4-0.2-0.6-0.2-1,0c-3.9,2.4-7.9,4.7-11.8,7.1
		c-1.3,0.8-2.8,0.6-3.6-0.5c-0.5-0.7-0.7-1.5-0.5-2.4c1-4.5,2-8.9,3.1-13.4c0.1-0.5,0-0.7-0.3-1.1c-3.5-3-6.9-6-10.3-9
		c-0.9-0.8-1.3-1.7-0.9-2.9c0.4-1.1,1.2-1.7,2.3-1.9c0.9-0.1,1.8-0.2,2.7-0.3c3.7-0.3,7.5-0.7,11.2-1c0.3,0,0.5-0.2,0.6-0.5
		c1.8-4.2,3.6-8.5,5.4-12.7c0.5-1.1,1.3-1.8,2.6-1.8c1.3,0,2.1,0.7,2.5,1.9c1.8,4.2,3.6,8.4,5.4,12.6c0.1,0.4,0.3,0.5,0.7,0.5
		c4.5,0.4,8.9,0.8,13.4,1.2c1.5,0.1,2.5,0.8,2.9,2.2C-187-40.2-187-39.9-187-39.5z M-225.1-14.7c0.2-0.1,0.3-0.2,0.5-0.3
		c3.6-2.2,7.3-4.3,10.9-6.5c1.2-0.7,2.2-0.7,3.4,0c3.6,2.2,7.2,4.3,10.9,6.5c0.2,0.1,0.3,0.2,0.5,0.3c0-0.2,0-0.2,0-0.3
		c-1-4.3-1.9-8.6-2.9-12.9c-0.3-1.2,0-2.1,0.9-2.9c3.2-2.8,6.4-5.6,9.6-8.4c0.2-0.1,0.3-0.3,0.5-0.5c-0.2,0-0.3-0.1-0.4-0.1
		c-4.3-0.4-8.6-0.8-12.9-1.2c-1.3-0.1-2.1-0.7-2.6-1.9c-1.7-3.9-3.3-7.9-5-11.8c-0.1-0.2-0.1-0.3-0.2-0.5c-0.5,1.1-0.9,2-1.3,2.9
		c-1.3,3.1-2.7,6.3-4,9.4c-0.4,1-1.2,1.7-2.3,1.8c-4,0.4-8,0.7-12,1.1c-0.5,0-1,0.1-1.5,0.2c0.2,0.2,0.3,0.3,0.4,0.4
		c3.2,2.8,6.5,5.7,9.7,8.5c0.9,0.8,1.2,1.7,1,2.8c-0.7,3-1.4,6.1-2.1,9.1C-224.5-17.5-224.8-16.1-225.1-14.7z"/>
</g>
<g>
	<path d="M-295-33.6c0.3-0.7,0.4-1.5,0.8-2.2c1.1-2,2.8-3.2,5.1-3.3c1.8-0.1,3.5-0.1,5.3,0.1c1.6,0.1,2.9,0.9,3.9,2.1
		c-4.4,3-6.7,7.1-6.9,12.4c-0.5,0-1.1,0-1.6,0c-1,0-2,0-2.9,0c-1.9-0.2-3.3-1.4-3.7-3.3c0-0.1-0.1-0.1-0.1-0.2
		C-295-30-295-31.8-295-33.6z"/>
	<path d="M-270-16.3c-2,0-4.1,0-6.1,0c-3.6,0-6.4-2.8-6.4-6.4c0-1.6-0.1-3.2,0.4-4.8c1.2-4.4,5.3-7.5,9.8-7.5c1.9,0,3.8-0.1,5.7,0.1
		c4.6,0.4,8.5,4.4,9,9c0.2,1.6,0.3,3.3-0.1,4.9c-0.6,2.8-3.1,4.8-6,4.8C-265.8-16.2-267.9-16.3-270-16.3
		C-270-16.3-270-16.3-270-16.3z"/>
	<path d="M-261.7-45.4c0,4.6-3.8,8.3-8.3,8.3c-4.6,0-8.3-3.8-8.3-8.4c0-4.6,3.8-8.3,8.4-8.3C-265.4-53.7-261.7-50-261.7-45.4z"/>
	<path d="M-260.2-37c1.2-1.4,2.6-2.1,4.4-2.2c1.7-0.1,3.5-0.1,5.2,0c3.1,0.2,5.5,2.9,5.6,6c0,1.4,0,2.8,0,4.2c0,2.3-1.6,4.1-3.9,4.2
		c-1.5,0.1-2.9,0-4.4,0C-253.5-29.9-255.8-34-260.2-37z"/>
	<path d="M-280.4-47.5c0,3.5-2.8,6.2-6.3,6.2c-3.4,0-6.2-2.8-6.2-6.3c0-3.5,2.8-6.3,6.3-6.2C-283.2-53.7-280.4-50.9-280.4-47.5z"/>
	<path d="M-259.6-47.5c0-3.5,2.8-6.2,6.2-6.2c3.4,0,6.2,2.8,6.2,6.2c0,3.4-2.8,6.3-6.3,6.3C-256.8-41.3-259.6-44.1-259.6-47.5z"/>
</g>
</svg>
