<?xml version="1.0" encoding="utf-8"?>
<!-- Generator: Adobe Illustrator 24.1.2, SVG Export Plug-In . SVG Version: 6.00 Build 0)  -->
<svg version="1.1" id="Warstwa_1" xmlns="http://www.w3.org/2000/svg" xmlns:xlink="http://www.w3.org/1999/xlink" x="0px" y="0px"
	 viewBox="0 0 50 50" style="enable-background:new 0 0 50 50;" xml:space="preserve"  fill="white">
<g>
	<path d="M24.7,0c0.2,0,0.5,0,0.7,0c0.3,0.2,0.6,0.4,0.8,0.7c0.6,0.5,1.1,1.2,1.7,1.7c2.3,1.8,5,2.8,7.7,3.6c3.4,1,6.9,1.5,10.4,1.5
		c1.1,0,1.5,0.5,1.5,1.5c0,5.4,0,10.8,0,16.2c0,4.9-1.5,9.3-4.4,13.1c-4.5,6-10.7,9.5-17.7,11.6c-0.2,0.1-0.5,0.1-0.8,0
		c-5.9-1.7-11.1-4.6-15.4-9c-4.4-4.5-6.7-9.9-6.7-16.3c0-5.2,0-10.5,0-15.7c0-1,0.4-1.4,1.4-1.5c1.6-0.1,3.2-0.2,4.7-0.4
		c3.5-0.4,6.9-1.3,10.1-2.7c1.9-0.9,3.6-2,5-3.6C24,0.5,24.3,0.3,24.7,0z M30,22.5c0-0.9,0-1.7,0-2.5c-0.1-2.6-2-4.7-4.4-4.9
		c-2.6-0.3-4.9,1.3-5.4,3.9C20,19.7,20,20.6,20,21.5c0,0.3,0,0.7,0,1c-0.4,0-0.8,0-1.1,0c-0.8,0-1.3,0.5-1.3,1.3c0,3.3,0,6.5,0,9.8
		c0,0.9,0.5,1.3,1.3,1.3c4.1,0,8.2,0,12.4,0c0.8,0,1.3-0.5,1.3-1.3c0-3.3,0-6.6,0-9.9c0-0.8-0.5-1.3-1.4-1.3
		C30.8,22.5,30.4,22.5,30,22.5z"/>
	<path d="M30,32.5c-3.3,0-6.6,0-10,0c0-2.5,0-4.9,0-7.4c3.3,0,6.6,0,10,0C30,27.5,30,30,30,32.5z"/>
	<path d="M22.5,22.5c0-0.9-0.1-1.9,0-2.8c0.1-1.3,1.3-2.2,2.5-2.2c1.3,0,2.4,1.1,2.4,2.4c0,0.9,0,1.7,0,2.6
		C25.8,22.5,24.2,22.5,22.5,22.5z"/>
</g>
</svg>
