<?xml version="1.0" encoding="utf-8"?>
<!-- Generator: Adobe Illustrator 24.1.2, SVG Export Plug-In . SVG Version: 6.00 Build 0)  -->
<svg version="1.1" id="Warstwa_1" xmlns="http://www.w3.org/2000/svg" xmlns:xlink="http://www.w3.org/1999/xlink" x="0px" y="0px"
	 viewBox="0 0 50 50" style="enable-background:new 0 0 50 50;" xml:space="preserve"  fill="white">
<g>
	<path d="M26.5,50c-1,0-2,0-2.9,0c-0.1,0-0.2-0.1-0.4-0.1c-3.1-0.2-6-0.9-8.8-2.3C6.7,43.9,2,37.8,0.4,29.4c-0.2-1-0.3-1.9-0.4-2.9
		c0-1,0-2,0-2.9c0-0.1,0.1-0.3,0.1-0.4c0.2-3.1,0.9-6,2.3-8.7C6.8,5.5,14,0.7,24,0c4.9-0.3,9.6,0.9,13.8,3.5
		C45.3,8.2,49.4,15,50,23.9c0.3,4.5-0.7,8.8-2.9,12.8c-3.9,7-9.8,11.3-17.7,12.8C28.4,49.8,27.4,49.9,26.5,50z M25,28.1
		C25,28.1,25,28.1,25,28.1C23.4,28,21.9,28,20.3,28c-4.2,0-7.6,2.8-8.3,6.8c-0.2,1.2-0.4,2.4,0.4,3.4c0.6,0.7,1.3,1.4,2.1,1.9
		c3.9,2.7,8.3,3.8,13.1,3.1c3.5-0.5,6.7-1.9,9.4-4.2c0.9-0.7,1.3-1.7,1.3-2.8c0-4.1-3.2-7.8-7.3-8.1C28.9,28,27,28.1,25,28.1z
		 M16.7,15.8c0,4.6,3.7,8.3,8.3,8.3c4.6,0,8.3-3.8,8.3-8.3c-0.1-4.6-3.8-8.2-8.3-8.2C20.4,7.5,16.7,11.2,16.7,15.8z"/>
</g>
</svg>
