<?xml version="1.0" encoding="utf-8"?>
<!-- Generator: Adobe Illustrator 24.1.2, SVG Export Plug-In . SVG Version: 6.00 Build 0)  -->
<svg version="1.1" id="Warstwa_1" xmlns="http://www.w3.org/2000/svg" xmlns:xlink="http://www.w3.org/1999/xlink" x="0px" y="0px"
	 viewBox="0 0 50 50" style="enable-background:new 0 0 50 50;" xml:space="preserve">
<g>
	<path d="M17.7,0c1.1,0.2,2.2,0.3,3.2,0.6c6.6,2,10.7,6.4,11.9,13.2c0.9,4.6-0.3,8.9-3.1,12.7c-0.1,0.1-0.1,0.2-0.1,0.2
		c0.7,0.7,1.4,1.4,2.1,2.1c1.3-0.6,1.9-0.5,3,0.5c4.8,4.8,9.7,9.7,14.5,14.5c1.1,1.1,1.1,2.2,0,3.3c-0.7,0.7-1.5,1.5-2.2,2.2
		c-0.9,0.9-2,0.9-3,0c-5-5-9.9-9.9-14.9-14.9c-0.8-0.8-0.9-1.6-0.3-2.7c-0.7-0.7-1.4-1.4-2.1-2.1c0,0-0.2,0.1-0.3,0.2
		c-9.8,7.3-24,1.7-26.1-10.3c-0.1-0.6-0.2-1.1-0.3-1.7c0-0.8,0-1.6,0-2.4c0-0.2,0.1-0.3,0.1-0.5C0.7,8.2,5.7,2.3,12.2,0.6
		c1.1-0.3,2.2-0.4,3.2-0.6C16.2,0,16.9,0,17.7,0z M29.1,16.6C29.2,9.7,23.6,4,16.8,3.9C9.7,3.8,4,9.4,3.9,16.3
		c-0.1,7,5.5,12.7,12.5,12.8C23.4,29.2,29.1,23.6,29.1,16.6z"/>
</g>
</svg>
