<?xml version="1.0" encoding="utf-8"?>
<!-- Generator: Adobe Illustrator 24.1.2, SVG Export Plug-In . SVG Version: 6.00 Build 0)  -->
<svg version="1.1" id="Warstwa_1" xmlns="http://www.w3.org/2000/svg" xmlns:xlink="http://www.w3.org/1999/xlink" x="0px" y="0px"
	 viewBox="0 0 50 50" style="enable-background:new 0 0 50 50;" xml:space="preserve">
<g>
	<path d="M37.7,50c-0.9-0.3-1.7-0.4-2.5-0.8c-3.8-1.7-5.6-5.9-4.4-9.9c0.1-0.4,0.1-0.6-0.3-0.8c-4.2-2.6-8.4-5.2-12.6-7.8
		c-0.3-0.2-0.5-0.2-0.8,0.1c-2.4,2.2-5.1,2.9-8.2,1.9c-3.1-1-4.9-3.2-5.6-6.4c-0.7-3.4,1.1-7,4.2-8.6c3.1-1.7,7-1.2,9.6,1.3
		c0.3,0.3,0.5,0.3,0.8,0.1c4.2-2.6,8.4-5.2,12.6-7.8c0.3-0.2,0.4-0.4,0.3-0.7C29,5.2,33.3-0.3,39.1,0c4.2,0.2,7.4,3.6,7.7,7.9
		c0.2,3.9-2.7,7.7-6.7,8.3c-2.8,0.5-5.2-0.3-7.3-2.2c-0.1-0.1-0.2-0.2-0.3-0.3c-4.5,2.8-9,5.5-13.5,8.3c0.7,2,0.7,4,0,5.9
		c4.5,2.8,9,5.5,13.4,8.3c0.3-0.2,0.5-0.5,0.8-0.7c2.7-2.2,6.4-2.5,9.4-0.8c3,1.8,4.5,5.3,3.8,8.7c-0.7,3.3-3.4,5.9-6.8,6.4
		c-0.1,0-0.2,0.1-0.3,0.1C38.9,50,38.3,50,37.7,50z M38.6,47c2.9,0,5.2-2.3,5.2-5.2c0-2.8-2.4-5.2-5.2-5.2c-2.9,0-5.2,2.4-5.2,5.2
		C33.4,44.7,35.7,47,38.6,47z M33.4,8.2c0,2.9,2.3,5.2,5.2,5.2c2.9,0,5.2-2.3,5.2-5.2c0-2.9-2.3-5.2-5.2-5.2
		C35.7,3,33.4,5.3,33.4,8.2z M6.2,25c0,2.9,2.3,5.2,5.2,5.2c2.9,0,5.2-2.3,5.2-5.2c0-2.9-2.3-5.2-5.2-5.2C8.5,19.8,6.2,22.1,6.2,25z
		"/>
</g>
</svg>
