<?xml version="1.0" encoding="utf-8"?>
<!-- Generator: Adobe Illustrator 24.1.2, SVG Export Plug-In . SVG Version: 6.00 Build 0)  -->
<svg version="1.1" id="Warstwa_1" xmlns="http://www.w3.org/2000/svg" xmlns:xlink="http://www.w3.org/1999/xlink" x="0px" y="0px"
	 viewBox="0 0 50 50" style="enable-background:new 0 0 50 50;" xml:space="preserve">
<style type="text/css">
	.st0{stroke:#000000;stroke-width:1.7671;stroke-linecap:round;stroke-linejoin:round;stroke-miterlimit:10;}
	.st1{fill:#FFFFFF;}
	.st2{stroke:#000000;stroke-width:2.0204;stroke-linecap:round;stroke-linejoin:round;stroke-miterlimit:10;}
	.st3{stroke:#000000;stroke-width:2.0909;stroke-linecap:round;stroke-linejoin:round;stroke-miterlimit:10;}
</style>
<g>
	<path class="st0" d="M36.7,48c-0.8-0.2-1.6-0.4-2.3-0.7c-3.5-1.5-5.2-5.4-4-9c0.1-0.4,0.1-0.6-0.3-0.8c-3.9-2.4-7.7-4.8-11.5-7.1
		c-0.3-0.2-0.5-0.2-0.7,0.1c-2.2,2-4.7,2.7-7.5,1.8c-2.8-0.9-4.5-2.9-5.1-5.8c-0.6-3.2,1-6.4,3.8-7.9c2.9-1.6,6.4-1.1,8.8,1.2
		c0.3,0.3,0.4,0.3,0.7,0.1c3.9-2.4,7.7-4.8,11.6-7.2c0.3-0.2,0.4-0.3,0.2-0.7C28.7,6.8,32.6,1.8,37.9,2c3.8,0.2,6.8,3.3,7.1,7.2
		c0.2,3.6-2.5,7-6.1,7.7c-2.6,0.4-4.8-0.3-6.7-2.1c-0.1-0.1-0.2-0.2-0.3-0.3c-4.1,2.5-8.2,5.1-12.4,7.7c0.7,1.8,0.7,3.6,0,5.5
		c4.1,2.6,8.2,5.1,12.3,7.6c0.3-0.2,0.5-0.5,0.8-0.7c2.5-2.1,5.9-2.3,8.7-0.7c2.8,1.6,4.2,4.8,3.5,8c-0.6,3.1-3.2,5.4-6.3,5.9
		c-0.1,0-0.2,0.1-0.2,0.1C37.8,48,37.2,48,36.7,48z M37.5,45.2c2.7,0,4.8-2.2,4.8-4.8c0-2.6-2.2-4.7-4.8-4.7c-2.6,0-4.8,2.2-4.8,4.8
		C32.7,43.1,34.9,45.2,37.5,45.2z M32.7,9.5c0,2.6,2.1,4.8,4.7,4.8c2.6,0,4.8-2.1,4.8-4.8c0-2.6-2.1-4.8-4.8-4.8
		C34.8,4.8,32.7,6.9,32.7,9.5z M7.8,25c0,2.6,2.1,4.8,4.8,4.8c2.6,0,4.8-2.1,4.8-4.8c0-2.6-2.2-4.8-4.8-4.8
		C9.9,20.2,7.8,22.4,7.8,25z"/>
</g>
</svg>
