<?xml version="1.0" encoding="utf-8"?>
<!-- Generator: Adobe Illustrator 24.1.2, SVG Export Plug-In . SVG Version: 6.00 Build 0)  -->
<svg version="1.1" id="Warstwa_1" xmlns="http://www.w3.org/2000/svg" xmlns:xlink="http://www.w3.org/1999/xlink" x="0px" y="0px"
	 viewBox="0 0 50 50" style="enable-background:new 0 0 50 50;" xml:space="preserve" fill='#555555'>
<style type="text/css">
	.st0{stroke:#000000;stroke-width:1.7671;stroke-linecap:round;stroke-linejoin:round;stroke-miterlimit:10;}
	.st1{fill:#FFFFFF;}
	.st2{stroke:#000000;stroke-width:2.0204;stroke-linecap:round;stroke-linejoin:round;stroke-miterlimit:10;}
	.st3{stroke:#000000;stroke-width:2.0909;stroke-linecap:round;stroke-linejoin:round;stroke-miterlimit:10;}
</style>
<g>
	<path class="st3" d="M48,20.8c-0.2,0.8-0.8,1.4-1.4,1.9c-3,2.6-6.1,5.3-9.1,8c-0.3,0.2-0.3,0.4-0.3,0.8c1,4.1,1.9,8.2,2.8,12.4
		c0.2,1.1,0,2-0.9,2.7c-0.9,0.7-1.9,0.6-2.9,0.1c-3.6-2.2-7.2-4.3-10.9-6.5c-0.3-0.2-0.5-0.2-0.9,0c-3.6,2.2-7.2,4.3-10.9,6.5
		c-1.2,0.7-2.5,0.5-3.3-0.5c-0.5-0.6-0.6-1.4-0.4-2.2c0.9-4.1,1.9-8.2,2.8-12.3c0.1-0.4,0-0.7-0.3-1c-3.2-2.8-6.3-5.5-9.5-8.3
		c-0.8-0.7-1.2-1.6-0.8-2.7c0.3-1,1.1-1.6,2.1-1.7c0.8-0.1,1.7-0.2,2.5-0.2c3.4-0.3,6.9-0.6,10.3-0.9c0.3,0,0.5-0.2,0.6-0.4
		c1.7-3.9,3.3-7.8,5-11.7C23.1,3.6,23.8,3,25,3c1.2,0,1.9,0.7,2.3,1.7c1.6,3.9,3.3,7.8,5,11.6c0.1,0.3,0.3,0.4,0.7,0.5
		c4.1,0.4,8.2,0.8,12.3,1.1c1.4,0.1,2.3,0.7,2.7,2.1C48,20.2,48,20.5,48,20.8z M13,43.7c0.2-0.1,0.3-0.2,0.4-0.3c3.3-2,6.7-4,10-6
		c1.1-0.6,2-0.7,3.1,0c3.3,2,6.7,4,10,6c0.1,0.1,0.3,0.2,0.5,0.3c0-0.1,0-0.2,0-0.3c-0.9-3.9-1.8-7.9-2.7-11.8
		c-0.2-1.1,0-1.9,0.9-2.7c2.9-2.6,5.9-5.1,8.8-7.7c0.1-0.1,0.3-0.3,0.5-0.5c-0.2,0-0.3-0.1-0.4-0.1c-4-0.4-7.9-0.7-11.9-1.1
		c-1.2-0.1-1.9-0.7-2.4-1.7c-1.5-3.6-3.1-7.2-4.6-10.8c-0.1-0.1-0.1-0.3-0.2-0.5c-0.4,1-0.8,1.8-1.2,2.7c-1.2,2.9-2.5,5.8-3.7,8.7
		c-0.4,1-1.1,1.6-2.1,1.7c-3.7,0.3-7.4,0.7-11.1,1c-0.4,0-0.9,0.1-1.4,0.1c0.2,0.2,0.3,0.3,0.4,0.4c3,2.6,5.9,5.2,8.9,7.8
		c0.8,0.7,1.1,1.6,0.9,2.6c-0.6,2.8-1.3,5.6-1.9,8.4C13.5,41.1,13.2,42.4,13,43.7z"/>
</g>
</svg>
