<?xml version="1.0" encoding="utf-8"?>
<!-- Generator: Adobe Illustrator 24.1.2, SVG Export Plug-In . SVG Version: 6.00 Build 0)  -->
<svg version="1.1" id="Warstwa_1" xmlns="http://www.w3.org/2000/svg" xmlns:xlink="http://www.w3.org/1999/xlink" x="0px" y="0px"
	 viewBox="0 0 50 50" style="enable-background:new 0 0 50 50;" xml:space="preserve">
<g>
	<path d="M50,20.5c-0.3,0.9-0.9,1.5-1.5,2.1c-3.3,2.9-6.6,5.8-9.9,8.6c-0.3,0.3-0.4,0.5-0.3,0.9c1,4.5,2,9,3.1,13.4
		c0.3,1.2,0,2.2-1,2.9c-1,0.7-2.1,0.7-3.1,0.1c-3.9-2.4-7.9-4.7-11.8-7.1c-0.4-0.2-0.6-0.2-1,0c-3.9,2.4-7.9,4.7-11.8,7.1
		c-1.3,0.8-2.8,0.6-3.6-0.5c-0.5-0.7-0.7-1.5-0.5-2.4c1-4.5,2-8.9,3.1-13.4c0.1-0.5,0-0.7-0.3-1.1c-3.5-3-6.9-6-10.3-9
		c-0.9-0.8-1.3-1.7-0.9-2.9c0.4-1.1,1.2-1.7,2.3-1.9c0.9-0.1,1.8-0.2,2.7-0.3c3.7-0.3,7.5-0.7,11.2-1c0.3,0,0.5-0.2,0.6-0.5
		c1.8-4.2,3.6-8.5,5.4-12.7C22.9,1.7,23.7,1,25,1.1c1.3,0,2.1,0.7,2.5,1.9c1.8,4.2,3.6,8.4,5.4,12.6c0.1,0.4,0.3,0.5,0.7,0.5
		c4.5,0.4,8.9,0.8,13.4,1.2c1.5,0.1,2.5,0.8,2.9,2.2C50,19.8,50,20.1,50,20.5z M11.9,45.3c0.2-0.1,0.3-0.2,0.5-0.3
		c3.6-2.2,7.3-4.3,10.9-6.5c1.2-0.7,2.2-0.7,3.4,0c3.6,2.2,7.2,4.3,10.9,6.5c0.2,0.1,0.3,0.2,0.5,0.3c0-0.2,0-0.2,0-0.3
		c-1-4.3-1.9-8.6-2.9-12.9c-0.3-1.2,0-2.1,0.9-2.9c3.2-2.8,6.4-5.6,9.6-8.4c0.2-0.1,0.3-0.3,0.5-0.5c-0.2,0-0.3-0.1-0.4-0.1
		c-4.3-0.4-8.6-0.8-12.9-1.2c-1.3-0.1-2.1-0.7-2.6-1.9c-1.7-3.9-3.3-7.9-5-11.8c-0.1-0.2-0.1-0.3-0.2-0.5c-0.5,1.1-0.9,2-1.3,2.9
		c-1.3,3.1-2.7,6.3-4,9.4c-0.4,1-1.2,1.7-2.3,1.8c-4,0.4-8,0.7-12,1.1c-0.5,0-1,0.1-1.5,0.2c0.2,0.2,0.3,0.3,0.4,0.4
		c3.2,2.8,6.5,5.7,9.7,8.5c0.9,0.8,1.2,1.7,1,2.8c-0.7,3-1.4,6.1-2.1,9.1C12.5,42.5,12.2,43.9,11.9,45.3z"/>
</g>
</svg>
