<?xml version="1.0" encoding="utf-8"?>
<!-- Generator: Adobe Illustrator 24.1.2, SVG Export Plug-In . SVG Version: 6.00 Build 0)  -->
<svg version="1.1" id="Warstwa_1" xmlns="http://www.w3.org/2000/svg" xmlns:xlink="http://www.w3.org/1999/xlink" x="0px" y="0px"
	 viewBox="0 0 50 50" style="enable-background:new 0 0 50 50;" xml:space="preserve">
<style type="text/css">
	.st0{stroke:#000000;stroke-width:1.7671;stroke-linecap:round;stroke-linejoin:round;stroke-miterlimit:10;}
	.st1{stroke:#000000;stroke-width:2.0204;stroke-linecap:round;stroke-linejoin:round;stroke-miterlimit:10;}
	.st2{stroke:#000000;stroke-width:2.0909;stroke-linecap:round;stroke-linejoin:round;stroke-miterlimit:10;}
</style>
<g>
	<path d="M48.5,23c-1.5-2.4-3.4-4.6-5.6-6.4c-4.6-3.8-9.9-5.9-15.9-6.3C20.5,9.8,14.6,11.4,9.2,15c-3.4,2.3-6.1,5.2-8.1,8.7
		C1,23.8,1,24,1,24.2V25c0,0.2,0,0.3,0.1,0.5l0.1,0.2c0.1,0.2,0.2,0.4,0.3,0.5c1.9,3,4.2,5.4,6.8,7.3C13.5,37.2,19,39,24.7,39
		c3.1,0,6.4-0.5,9.7-1.7c5.9-2,10.6-5.7,14.1-11.2C49.2,25.1,49.2,24.1,48.5,23z M43.8,24.6c-2.9,4-6.7,6.7-11.5,8.2
		c-2.4,0.8-4.8,1.1-8,1.2c-5.7-0.1-11-2.3-15.3-6.2c-0.7-0.7-1.3-1.4-2-2.2c-0.3-0.3-0.5-0.6-0.8-1c2.4-3.3,5.5-5.8,9.1-7.3
		c7.6-3.2,15-2.7,22.1,1.5C39.8,20.1,42,22.1,43.8,24.6z"/>
	<g>
		<g>
			<path d="M25,20.6C25,20.6,25,20.6,25,20.6c-0.9,0-1.7,0.4-2.3,1c-0.8,0.7-1.2,1.8-1.2,3c0,2.2,1.5,3.9,3.4,3.9
				c0.9,0,1.7-0.3,2.3-1c0.8-0.8,1.2-1.8,1.2-3C28.5,22.4,26.9,20.6,25,20.6z"/>
		</g>
		<g>
			<path d="M45,22c0,0-3-5-4-6s-9-3-10-3s-15,2-16,3S5,23,5,23s3,8,5,10s3,1,4,1s5,1,10,1s7,0,11-1s7-3,8-3s4-6,4-6L45,22z M25,33.5
				C25,33.5,25,33.5,25,33.5c-2.1,0-4.1-0.8-5.6-2.4c-1.7-1.7-2.7-4.1-2.6-6.6c0-4.9,3.7-8.9,8.2-8.9c0,0,0,0,0,0c2,0,4,0.8,5.5,2.4
				c1.7,1.7,2.7,4.1,2.7,6.6C33.2,29.5,29.5,33.5,25,33.5z"/>
		</g>
	</g>
</g>
</svg>
