<?xml version="1.0" encoding="utf-8"?>
<!-- Generator: Adobe Illustrator 24.1.2, SVG Export Plug-In . SVG Version: 6.00 Build 0)  -->
<svg version="1.1" id="Warstwa_1" xmlns="http://www.w3.org/2000/svg" xmlns:xlink="http://www.w3.org/1999/xlink" x="0px" y="0px"
	 viewBox="0 0 50 50" style="enable-background:new 0 0 50 50;" xml:space="preserve">
<style type="text/css">
	.st0{fill:#555555;stroke:#000000;stroke-width:1.7671;stroke-linecap:round;stroke-linejoin:round;stroke-miterlimit:10;}
	.st1{fill:#FFFFFF;}
	.st2{fill:#555555;stroke:#000000;stroke-width:2.0204;stroke-linecap:round;stroke-linejoin:round;stroke-miterlimit:10;}
	.st3{fill:#555555;stroke:#000000;stroke-width:2.0909;stroke-linecap:round;stroke-linejoin:round;stroke-miterlimit:10;}
</style>
<g>
	<path class="st2" d="M2,24.2c2-3.5,4.6-6.2,7.8-8.3c5.3-3.5,11-5,17.2-4.6c5.6,0.4,10.8,2.4,15.3,6.1c2.1,1.7,3.9,3.8,5.4,6.1
		c0.5,0.8,0.5,1.3,0,2.1c-3.4,5.3-8,8.9-13.6,10.7c-8.8,3-17.3,1.9-25.1-3.7c-2.6-1.8-4.8-4.2-6.6-7C2.3,25.5,2.1,25.2,2,25
		C2,24.7,2,24.5,2,24.2z M24.3,35c3.3,0,5.8-0.4,8.3-1.2c4.8-1.6,8.9-4.4,12.1-8.8c0.2-0.3,0.3-0.5,0-0.8c-1.9-2.6-4.1-4.8-6.8-6.3
		c-7.4-4.4-15.1-4.9-23-1.5c-3.9,1.6-7.1,4.3-9.7,7.9c-0.2,0.3-0.3,0.5,0,0.8c1,1.2,2,2.5,3.1,3.5C13.1,32.9,18.8,34.9,24.3,35z"/>
	<path class="st2" d="M25,32.5c-4,0-7.2-3.6-7.2-8c0-4.3,3.2-7.9,7.2-7.9c3.9,0,7.2,3.6,7.2,7.9C32.2,29,29,32.5,25,32.5z M25,19.6
		c-2.5,0-4.5,2.2-4.5,5c0,2.7,2,4.9,4.4,5c2.5,0,4.5-2.2,4.5-5C29.5,21.9,27.5,19.6,25,19.6z"/>
</g>
</svg>
