<?xml version="1.0" encoding="utf-8"?>
<!-- Generator: Adobe Illustrator 24.1.2, SVG Export Plug-In . SVG Version: 6.00 Build 0)  -->
<svg version="1.1" id="Warstwa_1" xmlns="http://www.w3.org/2000/svg" xmlns:xlink="http://www.w3.org/1999/xlink" x="0px" y="0px"
	 viewBox="0 0 50 50" style="enable-background:new 0 0 50 50;" xml:space="preserve">
<g>
	<path d="M0,24.2c2.1-3.4,5-6.1,8.5-8.2c5.7-3.5,12-4.9,18.7-4.5c6.1,0.4,11.7,2.3,16.6,6c2.3,1.7,4.2,3.7,5.8,6
		c0.5,0.8,0.6,1.3,0,2.1c-3.7,5.2-8.7,8.7-14.7,10.6c-9.6,2.9-18.8,1.8-27.3-3.6c-2.8-1.8-5.2-4.2-7.1-6.9C0.3,25.4,0.1,25.2,0,25
		C0,24.7,0,24.5,0,24.2z M24.2,34.8c3.6,0,6.3-0.4,9-1.2c5.2-1.6,9.7-4.3,13.2-8.7c0.2-0.3,0.3-0.5,0-0.8c-2-2.6-4.5-4.7-7.4-6.2
		c-8.1-4.3-16.5-4.8-25-1.5c-4.2,1.6-7.7,4.2-10.5,7.7c-0.2,0.3-0.3,0.5,0,0.8c1.1,1.2,2.1,2.4,3.4,3.5
		C12.1,32.8,18.2,34.7,24.2,34.8z"/>
	<path d="M25,32.4c-4.4,0-7.8-3.5-7.8-7.9c0-4.3,3.5-7.8,7.8-7.8c4.3,0,7.8,3.5,7.8,7.8C32.8,28.9,29.3,32.4,25,32.4z M25,19.7
		c-2.7,0-4.9,2.2-4.9,4.9c0,2.7,2.2,4.9,4.8,4.9c2.7,0,4.9-2.2,4.9-4.9C29.9,21.9,27.7,19.7,25,19.7z"/>
</g>
</svg>
